<svg width="240" height="240" viewBox="0 0 240 240" fill="none" xmlns="http://www.w3.org/2000/svg">
<g clip-path="url(#clip0)">
<rect width="240" height="240" fill="white"/>
<g filter="url(#filter0_d)">
<path d="M184.345 55.6094H55.5222V184.432H184.345V55.6094Z" fill="#FEFEFE"/>
</g>
<path fill-rule="evenodd" clip-rule="evenodd" d="M184.345 55.6094V184.43H55.5222L184.345 55.6094Z" fill="#FF0000"/>
<path fill-rule="evenodd" clip-rule="evenodd" d="M111.971 87.7406L112.473 86.4497C114.514 86.1575 115.536 85.7519 116.952 87.4222L117.606 87.4266L119.614 86.6677L121.308 87.3786L122.684 87.9717L123.785 88.7305L124.832 89.0707C125.787 88.8635 125.615 88.6237 125.558 89.5417C126.448 89.5068 126.214 89.3127 126.129 90.246L126.901 90.8674L127.935 91.7244L126.923 91.8421L126.193 93.5494L127.488 94.3344L126.175 94.9362C122.752 95.5293 123.905 97.9214 123.526 100.64C127.654 104.698 127.571 104.393 133.532 103.942C136.489 103.296 139.559 101.432 140.795 98.5842C143.074 93.3401 138.606 94.2886 139.727 89.2168C140.508 85.6931 145.032 84.5134 147.736 86.731C150.204 88.7545 149.053 93.1155 150.167 96.6218L149.576 99.2406C150.309 115.44 150.331 107.027 151.502 111.951C149.494 114.125 147.843 113.942 146.214 111.571L146.334 110.845C144.668 110.004 145.58 108.157 145.01 106.345L144.777 110.638C144.814 113.283 145.004 116.726 145.486 119.332C146.245 123.44 147.106 122.611 148.517 124.968C143.292 129.471 140.817 121.802 141.027 117.437C139.751 115.171 141.055 115.642 139.145 113.338L139.766 121.009C139.764 124.382 140.331 126.855 141.689 129.927L143.848 133.036C143.874 132.958 143.948 133.243 143.983 133.352C142.4 134.151 140.837 135.276 139.642 133.381C134.921 131.887 134.407 122.699 134.784 118.399C133.43 116.584 134.921 117.007 132.9 114.522L133.323 122.328L133.495 124.962L134.182 126.817C131.84 126.51 129.958 125.86 129.3 123.577L129.123 122.28L128.031 116.048C125.301 119.103 126.648 118.985 127.843 122.084L128.628 124.528L129.125 125.843L129.352 126.959L129.226 129.172C130.351 131.368 132.656 133.789 134.363 135.605C137.503 138.943 139.014 136.325 143.563 137.393L144.038 139.702C141.936 142.136 144.04 141.78 141.535 143.93C140.604 142.168 141.155 141.83 138.844 141.296C139.208 143.376 140.167 145.252 137.298 145.696L137.165 143.204L136.982 142.755C135.004 141.045 135.301 140.491 132.462 139.82C131.264 142.048 132.178 140.694 131.827 141.843L130.451 141.451C129.108 138.062 130.85 138.839 132.575 136.968L127.872 131.431C126.151 132.441 127.346 131.183 125.905 133.616L125.547 132.834L124.47 129.617L122.436 127.057C121.757 130.213 122.185 132.171 122.318 135.365C123.166 142.683 128.685 142.177 132.488 144.227C130.968 147.249 130.135 147.286 126.541 147.151L127.163 152.809C124.725 152.384 124.287 150.923 122.634 149.49L119.826 155.234L116.86 149.798C115.231 151.49 115.233 152.349 112.434 152.779L113.166 147.101C109.847 147.242 108.145 146.745 107.085 143.568C111.614 142.807 113.733 142.951 116.302 138.601C117.497 136.577 118.912 128.534 116.93 127.223L114.126 132.912L113.142 131.815L111.915 131.181L111.252 131.684L108.391 135.343L107.237 137.125L108.286 138.115L109.882 138.738C109.935 141.067 110.325 140.928 108.062 141.721L107.51 139.822C104.198 140.372 102.037 142.242 102.711 145.812C99.852 144.863 99.9894 144.1 101.553 141.774L101.631 141.959L101.221 140.747L99.6078 141.106L99.5162 141.054C97.6323 144.39 99.7452 143.017 97.8612 143.642C96.2477 141.822 96.9672 143.152 96.8887 140.389L95.3231 138.765L96.3938 137.365L104.052 136.791L104.8 136.187L105.467 135.548L106.066 134.857L106.664 134.146L108.186 132.552L108.725 131.743L109.272 130.936C111.444 127.72 109.686 129.735 110.46 126.913L111.186 124.107C111.147 121.606 110.892 123.078 112.133 122.718L112.006 122.598L113.666 119.556L112.475 115.963L112.774 115.45L111.559 114.238C111.446 116.242 111.971 121.669 110.329 122.504C110.009 125.444 109.047 126.028 106.141 126.37L106.67 120.812L106.413 114.125L105.282 116.111C105.602 121.405 105.244 130.688 100.282 133.581C98.33 134.43 97.0828 134.427 95.3362 132.842L97.6803 130.945C99.4705 127.243 100.236 123.8 100.286 119.661L100.395 113.285C98.8708 115.455 100.011 114.692 98.8446 116.815C99.0736 121.142 96.7732 129.63 91.2957 125.003C92.7676 122.395 93.703 123.143 94.4204 118.732C94.8282 116.216 95.0004 113.058 95.0418 110.518L94.7911 106.404C94.3528 107.974 95.0113 110.625 93.461 110.738L93.6071 111.502C92.0436 113.063 90.9992 114.759 88.3259 112.003C88.8165 109.868 90.0506 110.093 90.1422 106.497C90.2055 104.046 90.1357 101.718 90.345 99.1621L89.6342 96.6327C91.1802 91.5804 88.7467 88.9289 93.2713 85.9765C94.6254 84.8427 95.4125 85.0891 97.0697 85.8566L98.3039 86.4868L98.9973 87.0755L99.5293 87.8583L100.136 89.1862C100.931 90.8565 100.966 90.4466 100.133 92.082L99.4705 93.3815L98.9188 94.1731L98.6135 97.6859C102.242 103.972 112.868 108.294 115.563 100.479L116.67 99.016L116.485 94.0292C115.353 94.2712 115.558 94.5765 115.558 93.5364L113.491 93.6192C110.864 92.7928 110.822 93.6127 108.544 92.1103C108.681 92.0187 108.871 91.9097 108.977 91.8704C110.794 91.2228 115.467 89.7641 116.5 91.7309L116.782 91.6393C116.681 90.4902 117.139 91.3951 116.411 90.246L115.305 89.4283L111.038 89.8818L111.971 87.7406V87.7406ZM154.302 82.1018L86.0516 82.0712C84.8349 92.1953 84.4904 126.333 87.4275 134.772C92.1548 148.357 105.096 157.781 119.605 157.927C134.378 158.073 147.372 148.633 152.265 135.236C155.459 126.488 155.087 92.5486 154.302 82.1018V82.1018Z" fill="#2F43B3" stroke="black" stroke-width="0.0423" stroke-miterlimit="22.9256"/>
<path fill-rule="evenodd" clip-rule="evenodd" d="M132.488 144.227C128.685 142.177 123.166 142.683 122.318 135.365C120.831 133.111 121.433 130.335 121.223 127.57L119.821 128.987L118.696 127.784C117.774 136.377 118.548 142.725 107.892 144.214C108.96 146.652 111.514 146.218 113.799 146.645L113.312 151.878C116.25 151.403 116.801 147.236 116.588 144.724C114.826 146.146 116.481 145.967 114.187 146.331L118.655 138.867C119.581 144.508 115.962 146.185 119.828 154.316C124.051 148.597 120.571 143.599 121.121 138.942C124.287 142.293 124.56 150.439 132.488 144.227V144.227ZM125.462 119.871C126.461 117.559 127.154 116.958 127.346 114.295L126.755 106.158L122.933 105.255C121.668 107.047 121.764 108.615 119.712 110.032C117.573 108.816 117.536 107.274 116.649 104.878L112.405 105.846C113.773 103.094 112.549 105.445 114.758 104.773C116.561 104.226 115.257 104.016 117.473 103.153C118.051 105.185 117.946 107.23 119.636 108.728C121.891 107.252 121.62 105.578 121.779 102.987C125.033 105.366 123.081 104.745 127.176 104.849L128.792 108.898C133.046 109.247 133.912 108.135 137.359 107.878C137.261 111.67 136.892 116.264 137.431 120.178C138.807 130.143 139.263 127.644 140 131.369C136.134 128.298 137.573 118.063 135.752 114.917C134.265 115.996 134.904 116.07 134.784 118.399C134.407 122.699 134.921 131.888 139.642 133.381L143.227 133.447C141.881 131.746 142.167 132.681 141.69 129.927C140.331 126.855 139.764 124.382 139.766 121.009C138.061 118.538 139.328 115.187 137.747 113.188L140.174 112.265L140.335 107.708C137.715 106.504 140.621 108.569 137.771 107.352L140.957 105.83C141.295 110.678 140.824 110.447 144.365 110.499C140.968 113.052 143.781 120.25 144.651 123.75C141.716 120.477 143.556 114.398 141.639 110.935C140.098 113.153 141.144 114.363 141.027 117.437C140.817 121.803 143.292 129.472 148.517 124.969C147.106 122.612 146.245 123.44 145.486 119.332C145.004 116.726 144.814 113.283 144.777 110.639C143.659 108.669 144.252 106.831 143.946 104.008C142.424 105.357 142.954 105.377 141.086 105.715C143.281 103.34 144.036 101.991 145.905 99.7665C145.878 102.215 143.087 105.549 147.27 106.214L147.389 99.278C144.875 98.456 149.522 99.145 146.761 99.3086C146.644 99.3173 146.602 100.894 146.205 99.3391C146.179 99.2366 145.996 99.35 145.909 99.3304L148.094 94.7862L146.681 106.814C145.595 108.979 146.009 108.111 146.334 110.846L146.214 111.572C148.488 113.262 148.726 113.949 151.146 111.99C149.055 106.578 149.077 106.868 149.491 98.1464C150.75 97.2284 150.462 98.9074 150.167 96.6222C149.053 93.1159 150.204 88.7549 147.736 86.7314C145.032 84.5138 140.508 85.6935 139.727 89.2172C138.606 94.289 143.074 93.3405 140.796 98.5846C139.559 101.432 136.489 103.297 133.532 103.942C131.315 105.194 130.617 105.015 127.946 105.017C125.811 103.571 124.241 103.103 123.526 100.641C123.905 97.9218 122.752 95.5297 126.175 94.9367L126.193 93.5498C125.292 92.6798 125.251 94.7927 125.497 92.3244L126.923 91.8425L126.901 90.8678C125.829 91.0117 126.036 91.2756 126.129 90.2464L125.558 89.5421L124.832 89.0711L123.785 88.7309L122.684 87.9721L121.308 87.379C118.31 87.5098 120.358 87.4313 119.614 86.6682L117.606 87.427C117.935 88.0419 119.915 86.5504 117.17 89.6838L116.952 87.4226C115.537 85.7523 114.514 86.1579 112.473 86.4501L111.971 87.741L111.976 88.9337L115.305 89.4287L116.411 90.2464L118.184 91.6506C117.466 89.4788 117.503 90.628 118.258 88.3275C120.661 88.3079 121.339 88.6154 123.277 90.2856C121.535 91.8033 122.141 91.3192 119.577 91.8403L118.755 92.0344C117.815 95.2943 118.567 93.6 117.257 93.8813L116.782 91.6397L116.5 91.7313C115.489 92.8673 116.236 91.4282 116.588 92.924L113.491 93.6196L115.558 93.5368L116.485 94.0296L119.137 95.3073L117.562 95.6867L116.67 99.0164L115.563 100.48C112.868 108.294 102.242 103.973 98.6136 97.6863C98.4326 96.1381 97.9442 95.2834 98.9189 94.1735L99.4706 93.3819L100.133 92.0824L100.136 89.1866L99.5294 87.8587L98.9974 87.0759L98.304 86.4872L97.0698 85.857L93.2714 85.9769C88.7468 88.9293 91.1803 91.5809 89.6343 96.6331C89.4162 98.9335 89.1044 97.1848 90.3517 98.1507C90.4563 100.791 90.4716 103.846 90.3495 106.489C90.175 110.292 89.5667 109.518 88.6967 112.012C91.1497 113.964 91.37 113.24 93.6072 111.502L93.4611 110.739C93.7707 108.044 94.1414 108.988 93.158 106.751C92.0219 109.147 93.291 109.097 91.7755 110.213L91.9761 94.7797C93.5003 96.5132 92.7611 95.8416 93.424 97.9392C94.0891 100.041 94.1981 99.1995 94.1392 101.328L92.6129 98.7722C92.264 101.454 91.7232 104.428 93.2866 106.421C95.9905 105.484 94.7083 103.704 94.8348 100.916L97.9159 104.511C94.8588 105.597 98.2015 103.543 95.7288 104.542C95.5195 107.717 95.1161 108.27 96.5334 110.935L95.0419 110.519C95.0005 113.059 94.8283 116.216 94.4205 118.733C93.7031 123.144 92.7677 122.396 91.2958 125.004C96.7733 129.631 99.0737 121.142 98.8448 116.816C98.7444 114.018 99.5425 113.179 98.2953 110.852C96.2434 114.415 98.0903 120.374 95.2011 123.691C96.263 119.125 97.2377 116.075 96.9412 110.944C99.3724 109.186 99.8958 107.627 98.0052 105.002L102.087 107.298C99.2089 108.532 102.085 106.506 99.4444 107.714L99.7627 112.459L102.011 113.364C100.665 114.886 101.586 117.049 100.286 119.661C100.236 123.8 99.4706 127.243 97.6804 130.946L96.1278 133.322L100.282 133.582C105.245 130.688 105.602 121.406 105.282 116.112C104.719 114.749 105.58 115.361 104.071 114.991C101.911 118.419 104.047 127.18 99.7475 131.602C100.253 129.698 101.091 128.176 101.586 125.887C102.563 121.382 102.962 117.503 102.451 113.172C102.092 110.133 103.635 111.086 102.083 107.891C105.452 108.066 107.1 109.103 111.564 108.968L112.774 115.451L112.475 115.963C114.226 117.871 114.525 119.6 115.853 121.894C117 123.879 118.596 125.935 119.767 127.568C121.563 126.048 121.062 125.845 122.279 124.038C123.138 122.762 124.405 120.996 125.462 119.871V119.871ZM112.006 122.599L112.133 122.719L111.186 124.108L110.46 126.914C111.056 129.879 111.618 129.332 113.142 131.816L114.126 132.912L116.93 127.223C117.109 124.845 115.401 122.413 113.823 120.54L112.006 122.599V122.599ZM124.47 129.618L125.547 132.834C127.126 131.445 128.931 128.985 129.352 126.96L129.125 125.843L128.628 124.528L127.843 122.084L126.249 119.941L122.924 125.163L124.47 129.618V129.618ZM136.982 142.755L137.165 143.204L138.831 144.284C138.667 141.704 138.774 142.232 137.313 140.333L142.263 142.23C142.06 139 142.036 140.4 138.986 138.937C141.687 138.658 141.956 138.32 144.038 139.703L143.563 137.393C139.014 136.325 137.503 138.944 134.363 135.605C132.656 133.789 130.351 131.369 129.226 129.173L127.756 130.379L133.244 137.38C130.959 138.791 132.08 137.334 130.072 139.428L131.092 139.746C133.105 139.916 132.283 139.343 133.973 139.907C135.427 140.394 136.223 141.584 136.982 142.755Z" fill="#FAD016"/>
<path fill-rule="evenodd" clip-rule="evenodd" d="M136.238 108.964C136.408 111.262 136.823 112.228 135.658 114.106C132.839 113.827 132.802 111.533 133.574 109.254L136.238 108.964ZM110.303 114.583C107.344 114.67 107.693 113.188 107.407 109.858L111.439 109.902L110.303 114.583V114.583ZM103.646 108.885L106.457 109.247C106.646 110.506 106.836 112.047 106.191 113.332C105.478 114.758 105.497 114.169 103.581 113.896L103.646 108.885ZM127.346 114.295L128.622 112.44L128.415 109.873L132.37 109.917C131.899 114.697 132.429 114.143 129.343 115.024C132.287 117.817 129.136 119.725 131.692 124.038C131.347 121.478 130.451 117.126 131.84 114.779C132.505 116.894 132.139 120.479 133.323 122.328L132.9 114.522C134.921 117.008 133.43 116.585 134.784 118.399C134.904 116.07 134.265 115.996 135.752 114.917C137.573 118.063 136.134 128.299 140 131.369C139.263 127.644 138.807 130.143 137.431 120.178C136.892 116.264 137.261 111.67 137.359 107.878C133.912 108.135 133.046 109.247 128.792 108.899L127.176 104.849C123.081 104.745 125.033 105.366 121.779 102.987C121.62 105.578 121.89 107.252 119.636 108.728C117.946 107.23 118.051 105.185 117.473 103.153C115.257 104.016 116.561 104.226 114.758 104.773C112.549 105.445 113.772 103.094 112.405 105.846L116.648 104.878C117.536 107.274 117.573 108.816 119.712 110.032C121.764 108.615 121.668 107.047 122.933 105.255L126.755 106.158L127.346 114.295V114.295ZM139.766 121.009L139.145 113.338C141.055 115.643 139.751 115.172 141.027 117.437C141.144 114.363 140.098 113.153 141.639 110.935C143.556 114.398 141.716 120.477 144.651 123.75C143.781 120.25 140.968 113.052 144.365 110.499C140.824 110.447 141.295 110.678 140.957 105.831L137.771 107.353C140.621 108.569 137.714 106.504 140.335 107.708L140.174 112.265L137.747 113.188C139.328 115.187 138.061 118.539 139.766 121.009V121.009ZM144.777 110.639L145.01 106.345C145.579 108.157 144.668 110.004 146.334 110.846C146.009 108.111 145.595 108.979 146.681 106.814L148.094 94.7863L145.909 99.3305C145.996 99.3501 146.179 99.2367 146.205 99.3392C146.602 100.894 146.644 99.3174 146.761 99.3087C149.522 99.1451 144.875 98.4561 147.389 99.2781L147.269 106.214C143.087 105.549 145.878 102.215 145.904 99.7666C144.036 101.991 143.281 103.34 141.085 105.715C142.954 105.377 142.424 105.357 143.946 104.008C144.252 106.831 143.658 108.67 144.777 110.639V110.639ZM128.805 113.569L128.726 115.316C130.977 112.361 129.365 114.199 128.805 113.569ZM105.281 116.112L106.413 114.125L106.67 120.813L107.857 114.854C109.642 117.586 107.798 121.644 108.476 124.047C109.141 121.38 108.696 117.313 110.018 115.479C111.178 116.847 111.051 115.344 110.759 118.693C110.635 120.133 110.384 120.924 110.329 122.505C111.971 121.67 111.446 116.243 111.559 114.239L112.774 115.451L111.564 108.968C107.1 109.104 105.452 108.066 102.083 107.891C103.635 111.086 102.091 110.133 102.451 113.172C102.961 117.503 102.562 121.382 101.586 125.887C101.091 128.176 100.253 129.698 99.7473 131.602C104.047 127.18 101.91 118.419 104.071 114.991C105.58 115.362 104.719 114.749 105.281 116.112V116.112ZM111.186 124.108L112.133 122.719C110.892 123.078 111.147 121.607 111.186 124.108ZM98.8446 116.816C100.011 114.692 98.8708 115.455 100.395 113.286L100.286 119.662C101.586 117.049 100.665 114.886 102.011 113.364L99.7626 112.459L99.4442 107.715C102.085 106.507 99.2087 108.532 102.087 107.298L98.0051 105.002C99.8956 107.627 99.3723 109.186 96.941 110.944C97.2376 116.075 96.2629 119.125 95.201 123.691C98.0902 120.375 96.2433 114.415 98.2951 110.852C99.5424 113.179 98.7443 114.018 98.8446 116.816V116.816ZM93.4609 110.739C95.0113 110.626 94.3528 107.974 94.791 106.404L95.0418 110.519L96.5333 110.935C95.1159 108.271 95.5193 107.717 95.7287 104.542C98.2014 103.543 94.8586 105.597 97.9157 104.511L94.8346 100.916C94.7082 103.705 95.9903 105.484 93.2865 106.421C91.7231 104.429 92.2638 101.454 92.6127 98.7723L94.1391 101.328C94.1979 99.1996 94.0889 100.041 93.4239 97.9393C92.761 95.8417 93.5002 96.5133 91.976 94.7798L91.7754 110.213C93.2908 109.097 92.0218 109.147 93.1578 106.751C94.1412 108.988 93.7706 108.044 93.4609 110.739V110.739ZM133.532 103.942C127.571 104.394 127.654 104.699 123.526 100.641C124.241 103.103 125.811 103.572 127.946 105.017C130.617 105.015 131.315 105.194 133.532 103.942V103.942Z" fill="#7E6A11"/>
<path fill-rule="evenodd" clip-rule="evenodd" d="M123.393 144.406C124.865 147.897 126.107 144.977 126.491 152.036C123.441 151.08 122.891 147.426 123.393 144.406ZM122.318 135.366C122.185 132.171 121.757 130.213 122.436 127.058L124.47 129.618L122.924 125.163L126.249 119.941L125.462 119.871C124.405 120.996 123.138 122.762 122.279 124.038C121.062 125.845 121.563 126.048 119.767 127.568C118.596 125.935 116.999 123.879 115.853 121.894C114.525 119.6 114.226 117.871 112.475 115.963L113.666 119.557L112.006 122.599L113.822 120.54C115.401 122.413 117.109 124.845 116.93 127.223C118.912 128.534 117.497 136.578 116.302 138.601C113.733 142.952 111.614 142.808 107.085 143.569C108.144 146.746 109.847 147.243 113.166 147.101L112.434 152.779C115.233 152.35 115.231 151.49 116.86 149.798L119.825 155.234L122.634 149.491C124.287 150.923 124.725 152.384 127.163 152.81L126.541 147.151C130.135 147.286 130.968 147.249 132.488 144.227C124.559 150.439 124.287 142.293 121.121 138.942C120.571 143.599 124.051 148.597 119.828 154.316C115.962 146.185 119.581 144.508 118.655 138.867L114.187 146.331C116.481 145.967 114.826 146.146 116.587 144.724C116.801 147.236 116.249 151.403 113.312 151.879L113.799 146.645C111.513 146.218 108.96 146.652 107.892 144.214C118.548 142.725 117.774 136.377 118.696 127.784L119.821 128.988L121.223 127.57C121.432 130.335 120.831 133.111 122.318 135.366V135.366Z" fill="#7E6A11"/>
<path fill-rule="evenodd" clip-rule="evenodd" d="M109.272 130.936L108.725 131.743L108.186 132.552L106.664 134.146L106.067 134.857L105.467 135.548L104.8 136.187L104.052 136.791C102.246 138.056 98.7683 137.015 96.3938 137.364L95.5957 138.888C97.3903 139.497 95.6393 137.923 100.927 139.076L98.2974 139.844L97.5952 141.693L99.5163 141.054L99.6078 141.106L103.012 140.347L101.631 141.959L101.553 141.773L101.176 143.716C103.62 142.783 103.236 137.868 109.27 139.865L108.286 138.114L106.62 137.436L108.391 135.343L111.252 131.684L111.915 131.18L111.26 129.443C109.215 130.43 110.833 129.107 109.272 130.936V130.936Z" fill="#FAD016"/>
<path fill-rule="evenodd" clip-rule="evenodd" d="M128.622 112.44L128.805 113.569C129.365 114.199 130.977 112.361 128.726 115.316L129.123 122.28L129.3 123.578C131.142 125.782 130.338 125.298 133.198 126.371L133.495 124.962L133.323 122.328C132.139 120.479 132.505 116.894 131.84 114.779C130.451 117.126 131.347 121.478 131.692 124.038C129.136 119.725 132.287 117.817 129.343 115.024C132.429 114.143 131.899 114.697 132.37 109.917L128.414 109.873L128.622 112.44V112.44Z" fill="#FAD016"/>
<path fill-rule="evenodd" clip-rule="evenodd" d="M116.5 91.7313C115.466 89.7645 110.794 91.2233 108.977 91.8709C108.87 91.9101 108.681 92.0192 108.543 92.1107C110.822 93.6131 110.863 92.7932 113.491 93.6197L116.587 92.9241C116.236 91.4282 115.488 92.8674 116.5 91.7313V91.7313ZM116.411 90.2464L115.305 89.4287L111.975 88.9337L111.971 87.741L111.038 89.8823L115.305 89.4287L116.411 90.2464C117.139 91.3955 116.681 90.4906 116.781 91.6398L117.257 93.8813C118.567 93.6 117.815 95.2943 118.755 92.0344L119.577 91.8404C122.141 91.3192 121.535 91.8033 123.277 90.2857C121.339 88.6154 120.66 88.3079 118.258 88.3275C117.503 90.628 117.466 89.4789 118.183 91.6506L116.411 90.2464ZM117.606 87.427L116.951 87.4226L117.169 89.6838C119.915 86.5504 117.935 88.0419 117.606 87.427V87.427ZM116.485 94.0296L115.558 93.5368C115.558 94.5769 115.353 94.2716 116.485 94.0296L116.67 99.0164L115.562 100.48L116.67 99.0164L117.562 95.6868L119.136 95.3074L116.485 94.0296V94.0296Z" fill="#7E6A11"/>
<path fill-rule="evenodd" clip-rule="evenodd" d="M106.67 120.813L106.141 126.371C109.047 126.028 110.009 125.444 110.329 122.505C110.384 120.924 110.635 120.132 110.759 118.693C111.051 115.344 111.177 116.846 110.017 115.479C108.696 117.313 109.141 121.38 108.476 124.046C107.798 121.643 109.642 117.586 107.857 114.853L106.67 120.813V120.813Z" fill="#FAD016"/>
<path fill-rule="evenodd" clip-rule="evenodd" d="M110.303 114.582L111.439 109.901L107.407 109.857C107.693 113.187 107.344 114.67 110.303 114.582V114.582Z" fill="#FAD016"/>
<path fill-rule="evenodd" clip-rule="evenodd" d="M103.581 113.895C105.497 114.168 105.478 114.757 106.191 113.331C106.836 112.046 106.646 110.505 106.457 109.246L103.646 108.884L103.581 113.895Z" fill="#FAD016"/>
<path fill-rule="evenodd" clip-rule="evenodd" d="M133.574 109.253C132.802 111.532 132.839 113.826 135.658 114.105C136.822 112.227 136.408 111.261 136.238 108.963L133.574 109.253Z" fill="#FAD016"/>
<path fill-rule="evenodd" clip-rule="evenodd" d="M137.61 144.305C138.225 143.293 140.091 146.01 137.983 144.578C137.946 144.554 137.529 144.436 137.61 144.305ZM141.7 143.084C141.7 142.944 141.528 143.529 141.439 143.42L141.7 143.084ZM137.165 143.204L137.298 145.696C140.167 145.251 139.208 143.376 138.844 141.296C141.155 141.83 140.604 142.168 141.535 143.93C144.04 141.78 141.936 142.135 144.038 139.702C141.956 138.32 141.687 138.658 138.986 138.937C142.036 140.4 142.06 139 142.263 142.229L137.313 140.332C138.774 142.231 138.667 141.704 138.831 144.283L137.165 143.204V143.204Z" fill="#0A0B0D"/>
<path fill-rule="evenodd" clip-rule="evenodd" d="M108.672 140.851C108.463 140.65 109.163 141.322 108.672 140.851V140.851ZM101.553 141.773C99.9894 144.1 99.852 144.863 102.711 145.812C102.037 142.242 104.198 140.371 107.51 139.822L108.062 141.721C110.325 140.927 109.935 141.067 109.882 138.738L108.286 138.114L109.27 139.865C103.236 137.868 103.62 142.783 101.176 143.716L101.553 141.773V141.773Z" fill="#7E6A11"/>
<path fill-rule="evenodd" clip-rule="evenodd" d="M123.393 144.406C122.891 147.426 123.441 151.08 126.491 152.035C126.108 144.977 124.865 147.897 123.393 144.406Z" fill="#FAD016"/>
<path fill-rule="evenodd" clip-rule="evenodd" d="M130.501 140.417C130.595 140.323 130.802 140.548 130.802 140.681C130.772 140.655 130.405 140.511 130.501 140.417ZM125.547 132.833L125.905 133.616C127.346 131.183 126.151 132.441 127.871 131.431L132.575 136.968C130.85 138.839 129.108 138.062 130.451 141.451L131.827 141.843C132.178 140.694 131.264 142.048 132.461 139.82C135.3 140.491 135.004 141.045 136.982 142.755C136.223 141.584 135.427 140.393 133.972 139.907C132.283 139.342 133.105 139.916 131.092 139.746L130.072 139.427C132.08 137.334 130.959 138.791 133.244 137.38L127.756 130.378L129.226 129.172L129.352 126.959C128.931 128.985 127.126 131.444 125.547 132.833V132.833Z" fill="#0A0B0D"/>
<path fill-rule="evenodd" clip-rule="evenodd" d="M96.3937 137.365C98.7683 137.016 102.246 138.056 104.052 136.792L104.8 136.188L105.467 135.549L106.066 134.857L106.664 134.147L108.186 132.553L108.725 131.744L109.272 130.937C110.833 129.107 109.215 130.431 111.26 129.443L111.915 131.181L111.252 131.685L111.915 131.181L113.142 131.816C111.618 129.332 111.056 129.879 110.46 126.914C109.686 129.735 111.444 127.721 109.272 130.937L108.725 131.744L108.186 132.553L106.664 134.147L106.066 134.857L105.467 135.549L104.8 136.188L104.052 136.792L96.3937 137.365L95.3231 138.765L96.8887 140.389C97.5102 139.973 97.8111 140.036 98.2973 139.844L100.927 139.077C95.6393 137.923 97.3902 139.498 95.5957 138.889L96.3937 137.365V137.365Z" fill="#0A0B0D"/>
<path fill-rule="evenodd" clip-rule="evenodd" d="M127.346 114.295C127.154 116.957 126.461 117.559 125.462 119.87L126.249 119.94L127.843 122.084C126.648 118.985 125.301 119.103 128.031 116.048L129.123 122.28L128.726 115.315L128.805 113.569L128.622 112.439L127.346 114.295V114.295Z" fill="#0A0B0D"/>
<path fill-rule="evenodd" clip-rule="evenodd" d="M146.214 111.571C147.843 113.942 149.493 114.125 151.502 111.951C150.331 107.027 150.309 115.44 149.576 99.2405L150.167 96.6217C150.461 98.9069 150.749 97.2279 149.491 98.1459C149.077 106.868 149.055 106.578 151.146 111.99C148.726 113.948 148.488 113.261 146.214 111.571V111.571Z" fill="#0A0B0D"/>
<path fill-rule="evenodd" clip-rule="evenodd" d="M97.8067 142.634C97.8067 142.634 97.5058 143.653 97.8067 142.634V142.634ZM96.8887 140.388C96.9672 143.151 96.2477 141.821 97.8612 143.642C99.7452 143.016 97.6323 144.39 99.5162 141.054L97.5952 141.692L98.2973 139.843C97.8111 140.035 97.5102 139.972 96.8887 140.388V140.388Z" fill="#7E6A11"/>
<path fill-rule="evenodd" clip-rule="evenodd" d="M139.642 133.381C140.837 135.276 142.4 134.151 143.983 133.353C143.949 133.243 143.874 132.958 143.848 133.036L141.69 129.927C142.167 132.681 141.881 131.745 143.227 133.446L139.642 133.381V133.381Z" fill="#7E6A11"/>
<path fill-rule="evenodd" clip-rule="evenodd" d="M89.634 96.6324L90.3448 99.1618C90.1355 101.717 90.2053 104.046 90.142 106.497C90.0505 110.093 88.8163 109.868 88.3257 112.003C90.999 114.759 92.0434 113.063 93.6069 111.501C91.3697 113.239 91.1494 113.963 88.6964 112.012C89.5664 109.517 90.1747 110.291 90.3492 106.488C90.4713 103.846 90.456 100.791 90.3514 98.15C89.1041 97.184 89.4159 98.9328 89.634 96.6324V96.6324Z" fill="#0A0B0D"/>
<path fill-rule="evenodd" clip-rule="evenodd" d="M121.308 87.3789L122.684 87.972L123.785 88.7309L124.832 89.071L125.558 89.542L126.129 90.2463C126.036 91.2755 125.829 91.0117 126.901 90.8678L126.923 91.8424L125.497 92.3243C125.251 94.7927 125.292 92.6797 126.193 93.5498L126.175 94.9366L127.488 94.3348L126.193 93.5498L126.923 91.8424L127.935 91.7247L126.901 90.8678L126.129 90.2463C126.215 89.3131 126.448 89.5071 125.558 89.542C125.615 88.624 125.787 88.8639 124.832 89.071L123.785 88.7309L122.684 87.972L121.308 87.3789L119.614 86.6681C120.358 87.4313 118.31 87.5098 121.308 87.3789V87.3789Z" fill="#7E6A11"/>
<path fill-rule="evenodd" clip-rule="evenodd" d="M97.0697 85.8566L98.3039 86.4868L98.9973 87.0755L99.5293 87.8584L100.135 89.1863L100.133 92.082L99.4704 93.3816L98.9188 94.1731C97.9441 95.283 98.4325 96.1377 98.6135 97.6859L98.9188 94.1731L99.4704 93.3816L100.133 92.082C100.966 90.4466 100.931 90.8565 100.135 89.1863L99.5293 87.8584L98.9973 87.0755L98.3039 86.4868L97.0697 85.8566C95.4125 85.0891 94.6253 84.8427 93.2712 85.9766L97.0697 85.8566Z" fill="#0A0B0D"/>
<path fill-rule="evenodd" clip-rule="evenodd" d="M100.281 133.581L96.1276 133.322L97.6801 130.945L95.3361 132.842C97.0827 134.427 98.3299 134.43 100.281 133.581Z" fill="#0A0B0D"/>
<path fill-rule="evenodd" clip-rule="evenodd" d="M129.3 123.577C129.958 125.86 131.84 126.51 134.182 126.818L133.495 124.962L133.199 126.37C130.338 125.298 131.142 125.782 129.3 123.577V123.577ZM129.125 125.843L128.628 124.528L129.125 125.843Z" fill="#0A0B0D"/>
<path fill-rule="evenodd" clip-rule="evenodd" d="M99.6079 141.106L101.221 140.747L101.631 141.959L103.012 140.348L99.6079 141.106Z" fill="#7E6A11"/>
<path fill-rule="evenodd" clip-rule="evenodd" d="M108.286 138.115L107.237 137.125L108.391 135.344L106.62 137.437L108.286 138.115Z" fill="#0A0B0D"/>
<path fill-rule="evenodd" clip-rule="evenodd" d="M137.61 144.305C137.529 144.435 137.946 144.553 137.983 144.577C140.091 146.01 138.225 143.293 137.61 144.305Z" fill="#FAD016"/>
<path fill-rule="evenodd" clip-rule="evenodd" d="M141.439 143.42C141.528 143.529 141.7 142.945 141.7 143.084C141.7 143.143 141.814 142.94 141.807 142.947C141.788 142.975 140.255 141.996 141.439 143.42Z" fill="#FAD016"/>
<path fill-rule="evenodd" clip-rule="evenodd" d="M130.802 140.682C130.802 140.549 130.595 140.324 130.501 140.418L130.802 140.682Z" fill="#FAD016"/>
<path fill-rule="evenodd" clip-rule="evenodd" d="M108.672 140.851C109.16 141.319 108.464 140.651 108.672 140.851V140.851Z" fill="#FAD016"/>
<path fill-rule="evenodd" clip-rule="evenodd" d="M97.8068 142.635C97.5059 143.654 97.8068 142.635 97.8068 142.635V142.635Z" fill="#FAD016"/>
<path d="M76.0627 219.099C75.3846 218.807 74.8111 218.471 74.3401 218.094C73.8691 217.712 73.5071 217.302 73.2607 216.86C73.0143 216.417 72.8813 215.944 72.8595 215.449C72.8377 214.956 72.9424 214.448 73.1648 213.927C73.3916 213.403 73.6903 212.98 74.0653 212.658C74.4382 212.333 74.8743 212.11 75.3649 211.984C75.8577 211.862 76.4028 211.84 77.0025 211.923C77.6043 212.006 78.241 212.193 78.917 212.485L81.8214 213.739L83.0469 210.907L85.005 211.748L80.923 221.199L76.0627 219.099V219.099ZM79.4054 219.337L81.381 214.758L78.4787 213.504C77.7657 213.196 77.1333 213.144 76.5816 213.349C76.0278 213.55 75.583 214.04 75.245 214.823C74.9092 215.604 74.8569 216.264 75.0858 216.805C75.317 217.35 75.7879 217.773 76.4988 218.081L79.4054 219.337V219.337Z" fill="#1F1B20"/>
<path d="M69.9048 205.183C69.4861 204.946 69.0762 204.789 68.6728 204.71C68.2694 204.636 67.8812 204.653 67.504 204.762C67.1246 204.869 66.7648 205.076 66.4181 205.38C66.0692 205.685 65.7443 206.103 65.4456 206.633L62.4343 211.954L60.5765 210.903L63.5856 205.584C64.3336 204.265 65.2864 203.515 66.4574 203.325C67.6239 203.134 68.9432 203.454 70.415 204.285C71.8912 205.122 72.8463 206.09 73.2802 207.185C73.7119 208.28 73.5593 209.49 72.8114 210.805L69.8001 216.123L67.9445 215.074L70.9558 209.756C71.2545 209.222 71.4442 208.729 71.5292 208.275C71.6143 207.819 71.6012 207.403 71.5009 207.024C71.3984 206.644 71.2131 206.302 70.9405 205.997C70.6679 205.691 70.3234 205.417 69.9048 205.183Z" fill="#1F1B20"/>
<path d="M59.227 198.067C58.6971 197.661 58.1193 197.365 57.4913 197.177C56.8633 196.987 56.1699 196.928 55.4089 197.007L55.3588 195.856C56.1198 195.784 56.9069 195.867 57.7202 196.106C58.5379 196.351 59.2989 196.741 60.0098 197.284C60.7446 197.842 61.3334 198.442 61.7782 199.076C62.2274 199.713 62.5196 200.374 62.6569 201.058C62.7965 201.743 62.7747 202.441 62.5893 203.154C62.4062 203.863 62.0464 204.567 61.51 205.271C60.9736 205.971 60.3892 206.51 59.7568 206.876C59.1223 207.244 58.4638 207.456 57.7748 207.508C57.0857 207.567 56.3814 207.463 55.6597 207.212C54.9401 206.959 54.2271 206.564 53.5271 206.03C52.8163 205.487 52.2384 204.855 51.7893 204.131C51.3423 203.407 51.0523 202.668 50.9258 201.915L52.0444 201.66C52.173 202.415 52.4107 203.067 52.7574 203.625C53.1041 204.183 53.5446 204.661 54.0766 205.066C54.4975 205.389 54.9445 205.62 55.4133 205.762C55.8843 205.908 56.3596 205.938 56.8393 205.858C57.319 205.781 57.7987 205.583 58.2828 205.267C58.7647 204.948 59.2357 204.488 59.6958 203.889C60.1537 203.285 60.4742 202.711 60.6509 202.16C60.8297 201.612 60.8863 201.091 60.8253 200.598C60.7621 200.105 60.5942 199.648 60.3194 199.222C60.0447 198.795 59.6827 198.411 59.227 198.067Z" fill="#1F1B20"/>
<path d="M41.0939 194.458L48.2089 187.014L49.7483 188.488L46.6411 191.739L51.0021 195.91L54.1093 192.657L55.6531 194.133L48.5381 201.575L46.9965 200.099L50.2433 196.699L45.8823 192.532L42.6333 195.93L41.0939 194.458Z" fill="#1F1B20"/>
<path d="M42.5439 186.004L39.731 182.408L36.7939 187.508L36.8854 187.626L42.5439 186.004ZM34.8118 187.004L40.3503 177.345L41.6586 179.017L40.2848 181.322L43.7279 185.731L46.3009 184.955L47.6092 186.625L36.8963 189.673L34.8118 187.004V187.004Z" fill="#1F1B20"/>
<path d="M28.3748 177.895C27.9801 177.271 27.6923 176.671 27.5157 176.094C27.3391 175.511 27.2736 174.971 27.3194 174.463C27.3652 173.959 27.5179 173.497 27.7795 173.074C28.039 172.651 28.4097 172.289 28.8916 171.983C29.5523 171.565 30.2173 171.375 30.8824 171.416C31.5496 171.456 32.1972 171.713 32.8339 172.18L34.4562 168.272L35.758 170.324L34.3123 173.806L34.4562 174.029L36.1527 176.7L38.7584 175.045L39.9032 176.848L31.216 182.365L28.3748 177.895V177.895ZM30.998 179.977L35.226 177.289L33.5295 174.617C33.1131 173.963 32.6181 173.566 32.0511 173.429C31.4777 173.294 30.8344 173.453 30.1105 173.911C29.3887 174.371 28.9701 174.888 28.8502 175.463C28.7324 176.037 28.8829 176.652 29.3015 177.306L30.998 179.977V179.977Z" fill="#1F1B20"/>
<path d="M19.9799 159.711L26.5977 154.395L26.541 154.259L17.3742 155.459L16.5369 153.494L27.1385 152.101L28.3814 155.014L21.9903 160.136L22.047 160.269L30.1672 159.211L31.4079 162.125L23.0566 168.803L22.2193 166.839L29.4368 161.06L29.3801 160.923L20.9611 162.015L19.9799 159.711Z" fill="#1F1B20"/>
<path d="M15.5121 145.886C15.6385 146.37 15.8435 146.8 16.1292 147.177C16.4104 147.554 16.768 147.851 17.2041 148.073C17.6359 148.291 18.1461 148.424 18.7305 148.466C19.3149 148.509 19.9712 148.433 20.7017 148.239C21.43 148.045 22.0383 147.783 22.5268 147.46C23.0108 147.131 23.3881 146.765 23.6519 146.357C23.9223 145.954 24.0837 145.515 24.1425 145.047C24.2014 144.58 24.1643 144.105 24.0379 143.621C23.9114 143.137 23.7043 142.709 23.4186 142.33C23.1373 141.955 22.7797 141.654 22.3458 141.436C21.9141 141.216 21.4016 141.085 20.8194 141.041C20.2351 140.997 19.5787 141.074 18.8483 141.268C18.12 141.46 17.5094 141.721 17.0232 142.048C16.5391 142.376 16.1619 142.744 15.8937 143.152C15.6276 143.555 15.4663 143.996 15.4052 144.46C15.3485 144.929 15.3834 145.402 15.5121 145.886V145.886ZM14.5112 146.152C14.2823 145.297 14.1907 144.493 14.2343 143.736C14.2757 142.98 14.4545 142.293 14.7663 141.673C15.0825 141.059 15.5295 140.526 16.1095 140.077C16.6917 139.628 17.4069 139.29 18.2617 139.063C19.1165 138.837 19.9058 138.776 20.6341 138.876C21.3624 138.976 22.0144 139.218 22.5922 139.595C23.17 139.975 23.665 140.483 24.0793 141.12C24.4914 141.756 24.812 142.502 25.0387 143.355C25.2677 144.207 25.3571 145.016 25.3178 145.777C25.2764 146.543 25.0998 147.232 24.7858 147.849C24.474 148.464 24.0248 148.993 23.4404 149.438C22.8582 149.881 22.1408 150.217 21.2861 150.446C20.4313 150.67 19.642 150.736 18.9159 150.64C18.1897 150.546 17.5356 150.306 16.9599 149.927C16.3799 149.549 15.8849 149.037 15.4706 148.394C15.0563 147.755 14.7358 147.007 14.5112 146.152V146.152Z" fill="#1F1B20"/>
<path d="M23.2792 134.371C23.3185 134.722 23.3272 135.078 23.3054 135.427C23.2836 135.78 23.2356 136.124 23.1615 136.458C23.0917 136.789 23.0001 137.101 22.8889 137.391C22.7755 137.677 22.6491 137.934 22.5051 138.154L21.5588 137.587C21.8423 137.114 22.0385 136.641 22.141 136.175C22.2435 135.706 22.2631 135.191 22.2042 134.633C22.165 134.236 22.0625 133.868 21.9033 133.534C21.7441 133.202 21.5152 132.919 21.2143 132.69C20.9134 132.463 20.5427 132.295 20.1044 132.193C19.6639 132.095 19.1428 132.075 18.5366 132.138L13.5629 132.666L13.9248 136.107L12.8346 136.222L12.2458 130.662L18.3098 130.019C19.0599 129.936 19.7228 129.982 20.305 130.154C20.885 130.324 21.3822 130.597 21.7965 130.978C22.213 131.358 22.5422 131.835 22.7908 132.413C23.0394 132.989 23.2051 133.641 23.2792 134.371Z" fill="#1F1B20"/>
<path d="M12.8408 126.077L16.2293 126.018L16.1356 120.647L17.2389 120.63L17.3327 125.998L20.9414 125.933L20.8237 119.095L21.9248 119.075L22.084 128.046L11.7767 128.229L11.6176 119.254L12.7231 119.236L12.8408 126.077Z" fill="#1F1B20"/>
<path d="M13.059 108.473L21.3951 106.898L21.4082 106.75L12.7603 103.501L12.9457 101.373L22.9586 105.128L22.686 108.281L14.6486 109.794L14.6377 109.938L22.287 112.823L22.0144 115.971L11.4978 117.936L11.6875 115.812L20.7672 114.107L20.7802 113.959L12.841 110.963L13.059 108.473Z" fill="#1F1B20"/>
<path d="M15.4817 94.2717C15.3749 94.758 15.3618 95.2355 15.4403 95.7022C15.521 96.1644 15.6998 96.594 15.9876 96.9887C16.2732 97.3811 16.6679 97.7322 17.1673 98.0375C17.6688 98.3449 18.288 98.5804 19.0272 98.7418C19.7664 98.901 20.4271 98.9489 21.0115 98.8857C21.5937 98.8181 22.0996 98.6633 22.5226 98.4256C22.9478 98.1857 23.2967 97.8739 23.5627 97.4858C23.8265 97.0955 24.0119 96.6572 24.1231 96.171C24.2299 95.6803 24.243 95.205 24.1645 94.7384C24.086 94.2761 23.9029 93.8465 23.6194 93.4519C23.3316 93.0572 22.9369 92.7083 22.4354 92.403C21.936 92.0956 21.3146 91.8623 20.5754 91.6987C19.8384 91.5352 19.1755 91.4894 18.5933 91.557C18.0068 91.6224 17.5052 91.7772 17.08 92.0149C16.657 92.2526 16.3103 92.5666 16.0443 92.9547C15.7761 93.3428 15.5907 93.7811 15.4817 94.2717V94.2717ZM14.4787 94.0493C14.6684 93.1858 14.9584 92.4292 15.3422 91.7772C15.7281 91.1231 16.1991 90.5932 16.7617 90.1898C17.3243 89.7864 17.9653 89.5182 18.6893 89.383C19.4088 89.2522 20.2025 89.2784 21.0682 89.4703C21.9295 89.6621 22.66 89.9674 23.2596 90.3904C23.8614 90.8134 24.3324 91.328 24.6726 91.9299C25.0127 92.5317 25.2199 93.2098 25.294 93.9621C25.3703 94.7187 25.3136 95.5277 25.1239 96.389C24.9342 97.2525 24.6464 98.0135 24.2626 98.6698C23.8745 99.3305 23.4035 99.8604 22.8388 100.266C22.2806 100.667 21.6373 100.935 20.9156 101.06C20.1938 101.19 19.4023 101.16 18.5388 100.968C17.6775 100.781 16.9427 100.475 16.343 100.057C15.739 99.6401 15.2702 99.1277 14.9279 98.5259C14.5899 97.9263 14.3806 97.2438 14.3086 96.4828C14.2345 95.724 14.2912 94.9128 14.4787 94.0493ZM12.2131 91.291L14.0295 93.2883L13.7308 94.6533L11.7683 93.3167L12.2131 91.291V91.291Z" fill="#1F1B20"/>
<path d="M18.8768 81.2237C19.193 80.3995 19.5811 79.6908 20.0456 79.0955C20.5078 78.5024 21.0333 78.038 21.6199 77.7109C22.2064 77.3838 22.8519 77.2028 23.554 77.1658C24.2561 77.1309 24.9997 77.2617 25.7868 77.5648C26.5762 77.8657 27.2194 78.2626 27.7188 78.7576C28.2159 79.2569 28.5757 79.8173 28.7959 80.454C29.0118 81.0885 29.0968 81.7841 29.0467 82.5342C28.9965 83.2887 28.8134 84.0758 28.4972 84.9022L26.7637 89.4377L17.1411 85.7613L18.8768 81.2237V81.2237ZM18.9357 84.1609L26.4933 87.05L27.4658 84.5076C27.6446 84.0387 27.7406 83.5743 27.7537 83.112C27.7667 82.6476 27.6773 82.2115 27.4854 81.7906C27.2979 81.3698 26.997 80.9795 26.5893 80.6175C26.1815 80.2577 25.6407 79.9503 24.9735 79.6952C24.3041 79.4401 23.6957 79.3092 23.1528 79.307C22.6077 79.3027 22.1258 79.3921 21.7027 79.5796C21.2797 79.7628 20.9199 80.0332 20.6212 80.3864C20.3247 80.7418 20.087 81.1518 19.9082 81.6162L18.9357 84.1609V84.1609Z" fill="#1F1B20"/>
<path d="M26.914 66.9516L30.9044 76.6483L34.0683 70.4186L35.0517 70.9201L30.7212 79.4416L29.607 78.8768L25.6166 69.1801L22.5857 75.1438L21.6045 74.6466L25.7998 66.3868L26.914 66.9516Z" fill="#1F1B20"/>
<path d="M32.736 57.3662L30.6231 60.7329L38.4271 65.6303L37.2933 67.4401L29.4892 62.5427L27.3741 65.9072L26.4343 65.3163L31.794 56.7753L32.736 57.3662Z" fill="#1F1B20"/>
<path d="M39.4913 48.7575L47.1841 52.3924L47.2801 52.2834L42.1689 44.5535L43.5688 42.9421L49.4802 51.8757L47.4065 54.2655L40.0102 50.7636L39.9121 50.877L44.417 57.7063L42.3412 60.1005L32.6685 55.4997L34.0662 53.8883L42.4371 57.8611L42.5353 57.7499L37.8515 50.6458L39.4913 48.7575Z" fill="#1F1B20"/>
<path d="M51.1133 45.3171L54.5628 42.3385L49.3383 39.6696L49.2271 39.7633L51.1133 45.3171ZM49.7483 37.6678L59.65 42.7179L58.0495 44.1025L55.6771 42.8422L51.4469 46.4967L52.3474 49.0261L50.7469 50.4108L47.1884 39.8767L49.7483 37.6678V37.6678Z" fill="#1F1B20"/>
<path d="M69.6868 32.6897C69.9136 33.0495 70.0488 33.4267 70.0968 33.8345C70.1447 34.24 70.0771 34.6631 69.8853 35.1057C69.6955 35.544 69.375 36.0019 68.9237 36.4707C68.4723 36.9461 67.8596 37.4279 67.0811 37.9229C66.6428 38.202 66.1915 38.4419 65.7314 38.6425C65.2713 38.8431 64.8156 39.0001 64.3598 39.1157C63.9041 39.2334 63.4615 39.3032 63.0276 39.3272C62.5958 39.3533 62.1946 39.3337 61.8304 39.2639L61.9765 38.1235C62.707 38.2304 63.4528 38.1889 64.2181 38.0014C64.9791 37.8117 65.7401 37.4759 66.4924 36.9984C67.3297 36.4663 67.8487 35.9735 68.0493 35.52C68.2499 35.0686 68.2215 34.6391 67.9599 34.2335C67.7614 33.9173 67.4562 33.7385 67.0462 33.6993C66.6363 33.6557 66.0388 33.7385 65.2517 33.9457L62.417 34.7023C61.4816 34.9465 60.69 35.0054 60.0468 34.8724C59.4079 34.7394 58.8933 34.3752 58.5161 33.7778C58.3198 33.4703 58.2043 33.1258 58.1672 32.7486C58.1323 32.3713 58.1977 31.9745 58.3613 31.5602C58.5292 31.1481 58.8126 30.7251 59.2073 30.2933C59.5998 29.8616 60.134 29.432 60.8034 29.0068C61.2112 28.7473 61.6364 28.5228 62.079 28.3374C62.5217 28.1477 62.9687 27.9972 63.4179 27.8882C63.8649 27.7792 64.3053 27.7138 64.7371 27.6898C65.1688 27.6614 65.57 27.6854 65.9407 27.7552L65.7924 28.8956C65.0576 28.7844 64.3315 28.8128 63.6097 28.9719C62.8858 29.1333 62.1466 29.4516 61.3922 29.9314C60.7685 30.326 60.3739 30.7294 60.1994 31.1437C60.0272 31.5558 60.0403 31.92 60.2409 32.234C60.3499 32.4084 60.4742 32.5392 60.6137 32.6352C60.7555 32.7268 60.9277 32.7856 61.1371 32.8096C61.3442 32.8358 61.5884 32.8249 61.8741 32.7769C62.1575 32.729 62.4977 32.6548 62.8989 32.5501L65.7227 31.8044C66.6276 31.5667 67.4191 31.5057 68.0994 31.6213C68.7797 31.7368 69.3074 32.0922 69.6868 32.6897V32.6897ZM61.0825 25.3239L60.9517 28.0278L59.772 28.7757L59.3316 26.4382L61.0825 25.3239V25.3239Z" fill="#1F1B20"/>
<path d="M79.0327 29.7003L79.532 30.6816L71.9831 34.4975L67.3364 25.3153L69.2422 24.3537L73.3895 32.5546L79.0327 29.7003Z" fill="#1F1B20"/>
<path d="M81.5838 25.9976L85.8642 24.4145L81.9022 20.0601L81.7604 20.1124L81.5838 25.9976V25.9976ZM82.9859 18.3222L90.4977 26.5471L88.5113 27.2841L86.7298 25.2715L81.4813 27.2121L81.4377 29.8942L79.4491 30.6312L79.8067 19.4931L82.9859 18.3222V18.3222ZM90.4018 30.1166C89.8763 30.315 89.4227 30.339 89.0368 30.1907C88.6552 30.0446 88.3892 29.7633 88.2322 29.3512C88.0817 28.9347 88.0926 28.5444 88.2714 28.1803C88.4524 27.8161 88.7097 27.452 89.0455 27.0835L90.4258 26.5754C90.0398 27.0333 89.7389 27.4455 89.5187 27.814C89.3006 28.1825 89.2418 28.5074 89.3421 28.7821C89.4206 28.9936 89.5492 29.1245 89.7237 29.1768C89.9003 29.2269 90.1052 29.2051 90.3451 29.1201C90.465 29.0765 90.5784 29.0176 90.6809 28.9457C90.7877 28.8781 90.8793 28.8083 90.96 28.7363C91.045 28.6644 91.1301 28.5815 91.2129 28.4899L91.769 29.1441C91.6709 29.2749 91.5531 29.397 91.4135 29.5104C91.3067 29.6129 91.1672 29.7219 90.9949 29.8309C90.8183 29.94 90.622 30.0381 90.4018 30.1166V30.1166Z" fill="#1F1B20"/>
<path d="M99.6798 21.2574C99.7867 21.6674 99.8041 22.0729 99.7278 22.472C99.6515 22.8754 99.453 23.2548 99.1412 23.6189C98.8272 23.9809 98.3846 24.3189 97.8111 24.635C97.242 24.9512 96.5094 25.2259 95.6175 25.4614C95.116 25.5945 94.6145 25.6882 94.1173 25.7405C93.6158 25.7929 93.1317 25.8038 92.6651 25.7776C92.1941 25.7514 91.7493 25.6838 91.3306 25.577C90.912 25.4702 90.5348 25.3306 90.2077 25.1562L90.6918 24.1139C91.3546 24.4344 92.0786 24.6198 92.8635 24.6699C93.6485 24.7201 94.4728 24.6328 95.3362 24.4017C96.2935 24.1488 96.9367 23.8348 97.2638 23.4619C97.5931 23.089 97.6934 22.6704 97.5691 22.2038C97.4753 21.844 97.2355 21.5801 96.8582 21.4188C96.4788 21.2552 95.8857 21.1528 95.0724 21.1135L92.1418 20.9739C91.1736 20.9303 90.4061 20.745 89.8305 20.4223C89.2592 20.1017 88.8819 19.5959 88.701 18.9112C88.6072 18.5623 88.5985 18.2003 88.677 17.8275C88.7576 17.4546 88.9386 17.097 89.2221 16.7503C89.5056 16.408 89.9002 16.0874 90.4061 15.7952C90.912 15.5031 91.5509 15.2545 92.3184 15.0517C92.7829 14.9274 93.256 14.8424 93.7357 14.7966C94.2155 14.753 94.6865 14.7464 95.1465 14.7769C95.6066 14.8096 96.0471 14.8772 96.4657 14.9906C96.8844 15.0975 97.2638 15.2414 97.5952 15.4202L97.1112 16.4647C96.4461 16.1398 95.744 15.9435 95.007 15.8781C94.2656 15.8149 93.4675 15.8955 92.6041 16.1267C91.8932 16.3142 91.3917 16.5802 91.1017 16.9204C90.8117 17.2605 90.7136 17.6116 90.8095 17.9714C90.864 18.1742 90.9425 18.3399 91.0494 18.4664C91.154 18.5972 91.3023 18.7062 91.492 18.7891C91.6795 18.8785 91.9194 18.9439 92.2072 18.9831C92.4907 19.0246 92.8417 19.0573 93.2539 19.0791L96.1692 19.2208C97.1046 19.2644 97.8787 19.4454 98.4893 19.7594C99.0998 20.0756 99.4967 20.5749 99.6798 21.2574V21.2574Z" fill="#1F1B20"/>
<path d="M107.007 17.5741L111.723 22.0638L109.331 22.4716L105.232 18.5357L102.691 18.9697L103.459 23.4702L101.352 23.8257L99.6233 13.6623L101.73 13.3047L102.506 17.8816L104.9 17.4716L107.458 12.33L109.778 11.9353L107.007 17.5741Z" fill="#1F1B20"/>
<path d="M114.573 22.2561L112.447 22.3869L111.821 12.0884L113.949 11.9619L114.573 22.2561Z" fill="#1F1B20"/>
<path d="M118.09 12.9124L118.149 16.3009L123.519 16.2071L123.537 17.3104L118.168 17.4042L118.234 21.0129L125.072 20.8952L125.092 21.9964L116.121 22.1555L115.938 11.8483L124.913 11.6891L124.93 12.7946L118.09 12.9124Z" fill="#1F1B20"/>
<path d="M132.272 12.2536C133.153 12.3735 133.973 12.633 134.721 13.0385C135.466 13.4441 136.086 13.9413 136.572 14.5278L135.728 15.3063C135.242 14.7175 134.708 14.2684 134.13 13.9587C133.554 13.6491 132.933 13.4528 132.272 13.3634C131.777 13.298 131.308 13.322 130.868 13.4376C130.427 13.5531 130.03 13.7647 129.679 14.0743C129.324 14.3861 129.027 14.7982 128.788 15.315C128.548 15.8361 128.375 16.4685 128.275 17.2164C128.177 17.9861 128.175 18.6555 128.277 19.229C128.382 19.8003 128.563 20.2887 128.829 20.6834C129.095 21.0803 129.435 21.3899 129.854 21.621C130.277 21.8478 130.748 21.9983 131.271 22.068C131.712 22.1269 132.091 22.1356 132.418 22.0986C132.743 22.0637 133.022 22.007 133.251 21.9285C133.519 21.8434 133.744 21.7344 133.931 21.6014L134.298 18.8278L132.401 18.5749L132.525 17.6307L136.535 18.1584L136.007 22.1705C135.61 22.4147 135.157 22.6175 134.651 22.7767C134.217 22.9184 133.692 23.0231 133.072 23.1016C132.455 23.1757 131.76 23.1627 130.992 23.0645C130.118 22.9468 129.346 22.7287 128.676 22.4017C128.009 22.0746 127.455 21.6537 127.021 21.1282C126.583 20.6071 126.278 19.9944 126.103 19.2879C125.929 18.5858 125.901 17.7942 126.016 16.9199C126.13 16.0433 126.365 15.2888 126.714 14.6543C127.065 14.0176 127.514 13.503 128.053 13.1083C128.596 12.7136 129.226 12.4454 129.943 12.3037C130.658 12.162 131.435 12.1445 132.272 12.2536V12.2536Z" fill="#1F1B20"/>
<path d="M144.62 15.3745C144.134 15.2676 143.656 15.2546 143.19 15.3331C142.727 15.4137 142.298 15.5925 141.903 15.8804C141.511 16.166 141.16 16.5607 140.854 17.06C140.547 17.5615 140.311 18.1808 140.15 18.92C139.991 19.6592 139.943 20.3199 140.006 20.9043C140.074 21.4865 140.228 21.9923 140.466 22.4153C140.706 22.8405 141.018 23.1894 141.406 23.4555C141.796 23.7193 142.235 23.9046 142.721 24.0158C143.211 24.1227 143.687 24.1358 144.153 24.0573C144.616 23.9788 145.045 23.7956 145.44 23.5121C145.835 23.2243 146.183 22.8296 146.489 22.3281C146.796 21.8288 147.03 21.2073 147.193 20.4682C147.357 19.729 147.402 19.0683 147.335 18.4861C147.269 17.8995 147.115 17.398 146.877 16.9728C146.639 16.5498 146.325 16.2031 145.937 15.9371C145.549 15.6689 145.111 15.4835 144.62 15.3745V15.3745ZM144.842 14.3714C145.706 14.5612 146.463 14.8512 147.115 15.2349C147.769 15.6209 148.299 16.0919 148.702 16.6544C149.105 17.217 149.374 17.8581 149.509 18.582C149.64 19.3016 149.613 20.0953 149.422 20.9609C149.23 21.8222 148.924 22.5527 148.501 23.1524C148.078 23.7542 147.564 24.2252 146.962 24.5653C146.36 24.9055 145.682 25.1126 144.93 25.1868C144.173 25.2631 143.364 25.2064 142.503 25.0167C141.639 24.827 140.878 24.5392 140.222 24.1554C139.561 23.7673 139.031 23.2963 138.626 22.7315C138.225 22.1733 137.956 21.5301 137.832 20.8083C137.701 20.0866 137.732 19.295 137.924 18.4316C138.111 17.5703 138.416 16.8354 138.835 16.2358C139.252 15.6318 139.764 15.163 140.366 14.8206C140.966 14.4827 141.648 14.2733 142.409 14.2014C143.168 14.1272 143.979 14.1839 144.842 14.3714V14.3714Z" fill="#1F1B20"/>
<path d="M164.855 22.2914L163.726 30.7017L163.861 30.7583L169.672 23.5736L171.63 24.4196L164.912 32.7361L162.01 31.4823L163.106 23.373L162.971 23.3163L157.823 29.6746L154.914 28.4187L156.364 17.8257L158.325 18.674L157.079 27.8321L157.215 27.8888L162.559 21.2993L164.855 22.2914Z" fill="#1F1B20"/>
<path d="M177.847 39.1723L177.966 39.2551L186.126 34.1658L188.729 35.9604L182.888 44.4338L181.128 43.2258L185.805 36.4488L185.681 36.3638L178.099 41.1347L176.041 39.7152L177.803 30.9299L177.683 30.8471L173.008 37.6241L171.253 36.4139L177.094 27.9405L179.702 29.7372L177.847 39.1723Z" fill="#1F1B20"/>
<path d="M188.324 44.9962L191.621 48.1471L193.793 42.6827L193.691 42.5802L188.324 44.9962ZM195.832 42.892L191.743 53.2407L190.21 51.7733L191.235 49.2962L187.197 45.4302L184.766 46.5684L183.235 45.1053L193.385 40.5545L195.832 42.892V42.892Z" fill="#1F1B20"/>
<path d="M203.393 51.0676C203.873 51.6214 204.244 52.1753 204.501 52.7226C204.761 53.2677 204.905 53.7954 204.933 54.3013C204.963 54.8072 204.878 55.2869 204.684 55.7448C204.488 56.1983 204.172 56.6126 203.742 56.9855C203.147 57.4979 202.519 57.7814 201.852 57.8359C201.191 57.8926 200.509 57.7334 199.815 57.3649L198.773 61.4686L197.188 59.6348L198.11 55.9781L197.938 55.7797L195.871 53.3855L193.533 55.4024L192.14 53.7889L199.931 47.0598L203.393 51.0676V51.0676ZM200.487 49.3995L196.712 52.6594L198.777 55.0514C199.285 55.6379 199.831 55.9585 200.415 56.013C200.995 56.0653 201.61 55.8124 202.253 55.2585C202.896 54.7003 203.232 54.1312 203.267 53.549C203.295 52.9646 203.06 52.3781 202.552 51.7937L200.487 49.3995V49.3995Z" fill="#1F1B20"/>
<path d="M206.828 69.0413C206.468 69.268 206.091 69.4032 205.683 69.4512C205.278 69.4992 204.855 69.4316 204.412 69.2397C203.974 69.05 203.516 68.7294 203.047 68.2781C202.572 67.8267 202.09 67.214 201.595 66.4355C201.316 65.9973 201.076 65.5459 200.875 65.0858C200.675 64.6257 200.518 64.17 200.402 63.7143C200.284 63.2585 200.214 62.8159 200.19 62.382C200.164 61.9502 200.184 61.549 200.254 61.1849L201.394 61.331C201.287 62.0614 201.329 62.8072 201.516 63.5725C201.706 64.3335 202.042 65.0945 202.519 65.8468C203.051 66.6841 203.544 67.2031 203.998 67.4037C204.449 67.6043 204.879 67.576 205.284 67.3143C205.6 67.1159 205.779 66.8106 205.818 66.4007C205.862 65.9907 205.779 65.3933 205.572 64.6061L204.815 61.7714C204.571 60.836 204.512 60.0445 204.645 59.4012C204.778 58.7623 205.142 58.2477 205.74 57.8705C206.047 57.6743 206.392 57.5587 206.769 57.5216C207.146 57.4867 207.543 57.5522 207.957 57.7157C208.37 57.8836 208.793 58.1671 209.224 58.5617C209.656 58.9542 210.086 59.4884 210.511 60.1579C210.77 60.5656 210.995 60.9908 211.18 61.4335C211.37 61.8761 211.52 62.3231 211.629 62.7723C211.738 63.2193 211.804 63.6598 211.828 64.0915C211.856 64.5232 211.832 64.9245 211.762 65.2951L210.622 65.1469C210.731 64.412 210.705 63.6859 210.546 62.9642C210.384 62.2402 210.066 61.5011 209.586 60.7466C209.192 60.123 208.788 59.7283 208.374 59.5539C207.962 59.3816 207.598 59.3947 207.284 59.5953C207.107 59.7043 206.978 59.8286 206.882 59.9682C206.793 60.1099 206.732 60.2821 206.708 60.4915C206.682 60.6986 206.693 60.9428 206.741 61.2285C206.789 61.512 206.865 61.8543 206.967 62.2533L207.713 65.0771C207.951 65.982 208.012 66.7735 207.896 67.4538C207.781 68.1342 207.425 68.6618 206.828 69.0413V69.0413Z" fill="#1F1B20"/>
<path d="M217.185 75.153L207.011 72.6302L210.166 78.8686L209.183 79.3658L204.865 70.8313L205.98 70.2665L216.154 72.7872L213.134 66.817L214.117 66.3176L218.299 74.5883L217.185 75.153Z" fill="#1F1B20"/>
<path d="M213.971 81.6134L215.554 85.8938L219.909 81.9318L219.857 81.79L213.971 81.6134V81.6134ZM221.647 83.0155L213.415 90.5295L212.681 88.5409L214.698 86.7594L212.757 81.5109L210.068 81.4695L209.333 79.4787L220.476 79.8363L221.647 83.0155V83.0155Z" fill="#1F1B20"/>
<path d="M215.735 95.9288C215.908 96.572 216.18 97.163 216.562 97.6972C216.946 98.2292 217.456 98.7002 218.103 99.108L217.438 100.046C216.793 99.6378 216.222 99.0883 215.729 98.3993C215.23 97.7081 214.865 96.9296 214.634 96.0683C214.401 95.1765 214.301 94.3436 214.338 93.5673C214.377 92.791 214.551 92.0889 214.863 91.4653C215.173 90.8373 215.622 90.2987 216.202 89.8495C216.784 89.4003 217.504 89.0624 218.359 88.8356C219.213 88.6066 220.007 88.5412 220.733 88.6393C221.457 88.7331 222.113 88.973 222.691 89.3545C223.269 89.7318 223.768 90.242 224.181 90.8831C224.597 91.5242 224.913 92.2721 225.142 93.1268C225.373 93.9881 225.441 94.8429 225.347 95.6889C225.253 96.5371 225.027 97.2981 224.66 97.9763L223.618 97.49C223.98 96.8141 224.194 96.1512 224.261 95.497C224.329 94.8451 224.277 94.1975 224.106 93.552C223.971 93.0374 223.758 92.5817 223.474 92.1827C223.188 91.7793 222.833 91.4653 222.403 91.232C221.978 91.003 221.479 90.8613 220.899 90.8177C220.323 90.7719 219.669 90.846 218.936 91.0423C218.206 91.2363 217.602 91.4958 217.124 91.8229C216.645 92.1456 216.278 92.5206 216.025 92.9502C215.772 93.3798 215.626 93.8442 215.581 94.3457C215.537 94.8516 215.587 95.3793 215.735 95.9288V95.9288Z" fill="#1F1B20"/>
<path d="M228.036 109.652L217.87 111.382L217.515 109.28L221.941 108.525L220.927 102.579L216.501 103.333L216.145 101.227L226.309 99.4978L226.666 101.604L222.015 102.393L223.031 108.342L227.678 107.55L228.036 109.652Z" fill="#1F1B20"/>
<path d="M228.09 127.45L217.779 127.173L217.855 124.378L226.4 119.088L226.405 118.939L218.01 118.713L218.069 116.582L228.376 116.859L228.3 119.655L219.756 124.945L219.754 125.093L228.147 125.32L228.09 127.45Z" fill="#1F1B20"/>
<path d="M220.794 131.892L220.195 136.415L225.886 134.941L225.905 134.795L220.794 131.892V131.892ZM226.908 136.707L216.152 139.513L216.431 137.416L219.039 136.779L219.769 131.236L217.419 129.947L217.698 127.845L227.353 133.353L226.908 136.707V136.707Z" fill="#1F1B20"/>
<path d="M222.599 152.046C222.754 151.573 222.82 151.1 222.787 150.631C222.759 150.162 222.621 149.715 222.379 149.294C222.139 148.873 221.782 148.483 221.317 148.128C220.853 147.772 220.262 147.473 219.545 147.238C218.831 147 218.18 146.885 217.593 146.891C217.006 146.9 216.492 146.998 216.047 147.192C215.6 147.386 215.225 147.661 214.922 148.021C214.614 148.378 214.383 148.793 214.226 149.27C214.067 149.746 214.004 150.217 214.032 150.685C214.065 151.156 214.2 151.601 214.442 152.024C214.684 152.445 215.04 152.831 215.506 153.186C215.971 153.546 216.559 153.841 217.277 154.078C217.992 154.316 218.642 154.434 219.231 154.425C219.815 154.416 220.332 154.318 220.777 154.126C221.221 153.932 221.599 153.657 221.904 153.298C222.207 152.938 222.44 152.521 222.599 152.046V152.046ZM223.583 152.375C223.304 153.21 222.942 153.936 222.49 154.545C222.039 155.158 221.511 155.631 220.914 155.975C220.314 156.32 219.649 156.518 218.914 156.577C218.182 156.632 217.397 156.52 216.559 156.243C215.722 155.962 215.024 155.583 214.47 155.101C213.917 154.617 213.502 154.059 213.228 153.424C212.951 152.79 212.815 152.096 212.818 151.337C212.822 150.578 212.962 149.78 213.241 148.943C213.52 148.104 213.884 147.38 214.335 146.765C214.789 146.15 215.312 145.67 215.914 145.328C216.514 144.983 217.179 144.787 217.909 144.735C218.642 144.682 219.425 144.796 220.264 145.075C221.101 145.352 221.801 145.733 222.353 146.209C222.909 146.688 223.326 147.242 223.6 147.877C223.877 148.511 224.012 149.211 224.008 149.974C224.004 150.738 223.86 151.538 223.583 152.375V152.375Z" fill="#1F1B20"/>
<path d="M218.601 164.761C218.308 165.439 217.973 166.01 217.595 166.484C217.214 166.955 216.804 167.314 216.361 167.561C215.919 167.807 215.445 167.94 214.95 167.962C214.458 167.984 213.95 167.881 213.428 167.657C212.707 167.345 212.179 166.902 211.837 166.327C211.501 165.755 211.344 165.075 211.377 164.286L207.227 165.136L208.189 162.912L211.88 162.149L211.987 161.904L213.243 159L210.408 157.775L211.252 155.816L220.7 159.901L218.601 164.761V164.761ZM218.838 161.416L214.261 159.443L213.005 162.345C212.698 163.056 212.648 163.688 212.853 164.233C213.058 164.781 213.551 165.225 214.331 165.563C215.11 165.899 215.77 165.956 216.313 165.729C216.852 165.502 217.275 165.033 217.584 164.323L218.838 161.416V161.416Z" fill="#1F1B20"/>
<path d="M205.45 167.888L206.499 166.028L215.478 171.115L214.427 172.971L205.45 167.888Z" fill="#1F1B20"/>
<path d="M211.42 175.953L208.546 174.159L205.703 178.718L204.759 178.129L207.604 173.572L204.556 171.666L200.932 177.475L199.988 176.886L204.743 169.268L213.492 174.73L208.736 182.349L207.792 181.76L211.42 175.953Z" fill="#1F1B20"/>
<path d="M201.1 192.281L192.901 186.029L194.595 183.805L204.619 184.503L204.706 184.39L198.034 179.296L199.327 177.602L207.526 183.853L205.829 186.077L195.81 185.377L195.721 185.495L202.395 190.582L201.1 192.281Z" fill="#1F1B20"/>
<path d="M191.34 200.065L194.225 197.329L187.879 190.643L189.43 189.174L195.773 195.861L198.658 193.123L199.412 193.921L192.097 200.863L191.34 200.065Z" fill="#1F1B20"/>
<path d="M185.568 197.698L181.972 200.511L187.073 203.448L187.19 203.356L185.568 197.698ZM186.569 205.43L176.909 199.891L178.582 198.583L180.887 199.957L185.296 196.514L184.519 193.941L186.19 192.633L189.238 203.345L186.569 205.43Z" fill="#1F1B20"/>
<path d="M172.463 203.742C171.901 204.1 171.421 204.54 171.031 205.063C170.634 205.587 170.342 206.219 170.147 206.956L169.053 206.605C169.249 205.87 169.598 205.162 170.106 204.479C170.618 203.797 171.249 203.214 172.001 202.737C172.779 202.242 173.543 201.895 174.297 201.697C175.049 201.501 175.769 201.45 176.46 201.559C177.151 201.671 177.797 201.932 178.401 202.351C179.005 202.767 179.543 203.35 180.019 204.097C180.49 204.841 180.791 205.578 180.917 206.298C181.043 207.017 181.013 207.713 180.828 208.38C180.64 209.045 180.302 209.671 179.818 210.26C179.327 210.846 178.71 211.378 177.967 211.851C177.214 212.331 176.421 212.656 175.583 212.822C174.751 212.992 173.957 213.005 173.205 212.867L173.353 211.725C174.105 211.871 174.805 211.873 175.446 211.742C176.089 211.609 176.693 211.363 177.256 211.005C177.703 210.72 178.076 210.384 178.372 209.991C178.667 209.597 178.863 209.163 178.957 208.685C179.046 208.208 179.026 207.687 178.896 207.122C178.767 206.561 178.494 205.96 178.091 205.321C177.683 204.68 177.254 204.183 176.802 203.827C176.347 203.467 175.878 203.234 175.392 203.118C174.908 203.009 174.419 203.007 173.926 203.118C173.433 203.23 172.945 203.437 172.463 203.742V203.742Z" fill="#1F1B20"/>
<path d="M165.215 206.677C165.531 206.518 165.854 206.387 166.194 206.284C166.53 206.178 166.868 206.099 167.206 206.051C167.544 206.001 167.866 205.975 168.178 205.979C168.486 205.981 168.769 206.012 169.029 206.064L168.837 207.152C168.292 207.054 167.784 207.041 167.306 207.111C166.833 207.181 166.345 207.342 165.843 207.595C165.485 207.776 165.178 208 164.923 208.266C164.668 208.532 164.487 208.849 164.378 209.211C164.271 209.573 164.245 209.976 164.308 210.425C164.369 210.872 164.537 211.365 164.812 211.908L167.068 216.371L170.152 214.81L170.651 215.796L165.66 218.316L162.908 212.872C162.566 212.198 162.374 211.561 162.326 210.957C162.28 210.353 162.359 209.793 162.57 209.272C162.777 208.746 163.106 208.269 163.553 207.833C164.005 207.392 164.561 207.01 165.215 206.677V206.677Z" fill="#1F1B20"/>
<path d="M160.808 219.213L159.633 216.027L154.589 217.887L154.206 216.855L159.249 214.993L157.995 211.6L151.574 213.971L151.19 212.939L159.616 209.828L163.192 219.507L154.768 222.619L154.387 221.585L160.808 219.213ZM154.051 208.347C154.576 208.151 155.03 208.129 155.414 208.273C155.795 208.419 156.068 208.7 156.221 209.117C156.373 209.533 156.358 209.921 156.181 210.288C156.002 210.652 155.745 211.016 155.409 211.382L154.029 211.893C154.413 211.435 154.714 211.022 154.936 210.654C155.154 210.283 155.215 209.961 155.111 209.684C155.032 209.47 154.906 209.341 154.729 209.291C154.552 209.237 154.345 209.258 154.11 209.346C153.985 209.391 153.874 209.448 153.77 209.518C153.665 209.588 153.576 209.66 153.493 209.729C153.408 209.804 153.325 209.886 153.242 209.978L152.684 209.32C152.782 209.191 152.9 209.067 153.037 208.958C153.146 208.851 153.286 208.746 153.458 208.635C153.632 208.524 153.831 208.426 154.051 208.347Z" fill="#1F1B20"/>
</g>
<defs>
<filter id="filter0_d" x="39.5222" y="39.6094" width="160.822" height="160.822" filterUnits="userSpaceOnUse" color-interpolation-filters="sRGB">
<feFlood flood-opacity="0" result="BackgroundImageFix"/>
<feColorMatrix in="SourceAlpha" type="matrix" values="0 0 0 0 0 0 0 0 0 0 0 0 0 0 0 0 0 0 127 0"/>
<feOffset/>
<feGaussianBlur stdDeviation="8"/>
<feColorMatrix type="matrix" values="0 0 0 0 0 0 0 0 0 0 0 0 0 0 0 0 0 0 0.6 0"/>
<feBlend mode="normal" in2="BackgroundImageFix" result="effect1_dropShadow"/>
<feBlend mode="normal" in="SourceGraphic" in2="effect1_dropShadow" result="shape"/>
</filter>
<clipPath id="clip0">
<rect width="240" height="240" fill="white"/>
</clipPath>
</defs>
</svg>
