<?xml version="1.0" encoding="UTF-8"?>
<!DOCTYPE svg PUBLIC "-//W3C//DTD SVG 1.1//EN" "http://www.w3.org/Graphics/SVG/1.1/DTD/svg11.dtd">
<!-- Creator: CorelDRAW Home & Student 2018 (Nie do użytku komercyjnego) -->
<svg xmlns="http://www.w3.org/2000/svg" xml:space="preserve" width="11.0066mm" height="11.0066mm" version="1.1" style="shape-rendering:geometricPrecision; text-rendering:geometricPrecision; image-rendering:optimizeQuality; fill-rule:evenodd; clip-rule:evenodd"
viewBox="0 0 11.0066 11.0066"
 xmlns:xlink="http://www.w3.org/1999/xlink">
 <defs>
  <style type="text/css">
   <![CDATA[
    .str0 {stroke:black;stroke-width:0.0423;stroke-miterlimit:22.9256}
    .fil7 {fill:none}
    .fil1 {fill:#FEFEFE}
    .fil6 {fill:#0A0B0D}
    .fil3 {fill:#2F43B3}
    .fil5 {fill:#7E6A11}
    .fil4 {fill:#FAD016}
    .fil2 {fill:red}
    .fil0 {fill:white}
    .fil8 {fill:#1F1B20;fill-rule:nonzero}
   ]]>
  </style>
     <clipPath id="id0">
      <path d="M1.7193 1.7233l7.5619 0 0 7.5618 -7.5619 0 0 -7.5618z"/>
     </clipPath>
 </defs>
 <g id="LOGO">
  <metadata id="CorelCorpID_0Corel-Layer"/>
  <g id="_490376360">
   <circle class="fil0" cx="5.5007" cy="5.515" r="5.5034"/>
   <g>
    <g style="clip-path:url(#id0)">
     <image x="1.7193" y="1.7233" width="7.5619" height="7.5618" xlink:href="logo PWS_Images\logo PWS_ImgID1.png"/>
    </g>
   </g>
   <rect class="fil1" x="2.5463" y="2.5503" width="5.9079" height="5.9079"/>
   <polygon class="fil2" points="8.4542,2.5503 8.4542,8.4581 2.5463,8.4581 "/>
   <g>
    <path class="fil3 str0" d="M5.1351 4.0239l0.023 -0.0592c0.0936,-0.0134 0.1405,-0.032 0.2054,0.0446l0.03 0.0002 0.0921 -0.0348 0.0777 0.0326 0.0631 0.0272 0.0505 0.0348 0.048 0.0156c0.0438,-0.0095 0.0359,-0.0205 0.0333,0.0216 0.0408,-0.0016 0.0301,-0.0105 0.0262,0.0323l0.0354 0.0285 0.0474 0.0393 -0.0464 0.0054 -0.0335 0.0783 0.0594 0.036 -0.0602 0.0276c-0.157,0.0272 -0.1041,0.1369 -0.1215,0.2616 0.1893,0.1861 0.1855,0.1721 0.4589,0.1514 0.1356,-0.0296 0.2764,-0.1151 0.3331,-0.2457 0.1045,-0.2405 -0.1004,-0.197 -0.049,-0.4296 0.0358,-0.1616 0.2433,-0.2157 0.3673,-0.114 0.1132,0.0928 0.0604,0.2928 0.1115,0.4536l-0.0271 0.1201c0.0336,0.7429 0.0346,0.3571 0.0883,0.5829 -0.0921,0.0997 -0.1678,0.0913 -0.2425,-0.0174l0.0055 -0.0333c-0.0764,-0.0386 -0.0346,-0.1233 -0.0607,-0.2064l-0.0107 0.1969c0.0017,0.1213 0.0104,0.2792 0.0325,0.3987 0.0348,0.1884 0.0743,0.1504 0.139,0.2585 -0.2396,0.2065 -0.3531,-0.1452 -0.3435,-0.3454 -0.0585,-0.1039 0.0013,-0.0823 -0.0863,-0.188l0.0285 0.3518c-0.0001,0.1547 0.0259,0.2681 0.0882,0.409l0.099 0.1426c0.0012,-0.0036 0.0046,0.0095 0.0062,0.0145 -0.0726,0.0366 -0.1443,0.0882 -0.1991,0.0013 -0.2165,-0.0685 -0.2401,-0.4899 -0.2228,-0.6871 -0.0621,-0.0832 0.0063,-0.0638 -0.0864,-0.1778l0.0194 0.358 0.0079 0.1208 0.0315 0.0851c-0.1074,-0.0141 -0.1937,-0.0439 -0.2239,-0.1486l-0.0081 -0.0595 -0.0501 -0.2858c-0.1252,0.1401 -0.0634,0.1347 -0.0086,0.2768l0.036 0.1121 0.0228 0.0603 0.0104 0.0512 -0.0058 0.1015c0.0516,0.1007 0.1573,0.2117 0.2356,0.295 0.144,0.1531 0.2133,0.033 0.4219,0.082l0.0218 0.1059c-0.0964,0.1116 0.0001,0.0953 -0.1148,0.1939 -0.0427,-0.0808 -0.0174,-0.0963 -0.1234,-0.1208 0.0167,0.0954 0.0607,0.1814 -0.0709,0.2018l-0.0061 -0.1143 -0.0084 -0.0206c-0.0907,-0.0784 -0.0771,-0.1038 -0.2073,-0.1346 -0.0549,0.1022 -0.013,0.0401 -0.0291,0.0928l-0.0631 -0.018c-0.0616,-0.1554 0.0183,-0.1198 0.0974,-0.2056l-0.2157 -0.2539c-0.0789,0.0463 -0.0241,-0.0114 -0.0902,0.1002l-0.0164 -0.0359 -0.0494 -0.1475 -0.0933 -0.1174c-0.0311,0.1447 -0.0115,0.2345 -0.0054,0.381 0.0389,0.3356 0.292,0.3124 0.4664,0.4064 -0.0697,0.1386 -0.1079,0.1403 -0.2727,0.1341l0.0285 0.2595c-0.1118,-0.0195 -0.1319,-0.0865 -0.2077,-0.1522l-0.1288 0.2634 -0.136 -0.2493c-0.0747,0.0776 -0.0746,0.117 -0.203,0.1367l0.0336 -0.2604c-0.1522,0.0065 -0.2303,-0.0163 -0.2789,-0.162 0.2077,-0.0349 0.3049,-0.0283 0.4227,-0.2278 0.0548,-0.0928 0.1197,-0.4617 0.0288,-0.5218l-0.1286 0.2609 -0.0451 -0.0503 -0.0563 -0.0291 -0.0304 0.0231 -0.1312 0.1678 -0.0529 0.0817 0.0481 0.0454 0.0732 0.0286c0.0024,0.1068 0.0203,0.1004 -0.0835,0.1368l-0.0253 -0.0871c-0.1519,0.0252 -0.251,0.111 -0.2201,0.2747 -0.1311,-0.0435 -0.1248,-0.0785 -0.0531,-0.1852l0.0036 0.0085 -0.0188 -0.0556 -0.074 0.0165 -0.0042 -0.0024c-0.0864,0.153 0.0105,0.09 -0.0759,0.1187 -0.074,-0.0835 -0.041,-0.0225 -0.0446,-0.1492l-0.0718 -0.0745 0.0491 -0.0642 0.3512 -0.0263 0.0343 -0.0277 0.0306 -0.0293 0.0275 -0.0317 0.0274 -0.0326 0.0698 -0.0731 0.0247 -0.0371 0.0251 -0.037c0.0996,-0.1475 0.019,-0.0551 0.0545,-0.1845l0.0333 -0.1287c-0.0018,-0.1147 -0.0135,-0.0472 0.0434,-0.0637l-0.0058 -0.0055 0.0761 -0.1395 -0.0546 -0.1648 0.0137 -0.0235 -0.0557 -0.0556c-0.0052,0.0919 0.0189,0.3408 -0.0564,0.3791 -0.0147,0.1348 -0.0588,0.1616 -0.1921,0.1773l0.0243 -0.2549 -0.0118 -0.3067 -0.0519 0.0911c0.0147,0.2428 -0.0017,0.6685 -0.2293,0.8012 -0.0895,0.0389 -0.1467,0.0388 -0.2268,-0.0339l0.1075 -0.087c0.0821,-0.1698 0.1172,-0.3277 0.1195,-0.5175l0.005 -0.2924c-0.0699,0.0995 -0.0176,0.0645 -0.0711,0.1619 0.0105,0.1984 -0.095,0.5877 -0.3462,0.3755 0.0675,-0.1196 0.1104,-0.0853 0.1433,-0.2876 0.0187,-0.1154 0.0266,-0.2602 0.0285,-0.3767l-0.0115 -0.1887c-0.0201,0.072 0.0101,0.1936 -0.061,0.1988l0.0067 0.035c-0.0717,0.0716 -0.1196,0.1494 -0.2422,0.023 0.0225,-0.0979 0.0791,-0.0876 0.0833,-0.2525 0.0029,-0.1124 -0.0003,-0.2192 0.0093,-0.3364l-0.0326 -0.116c0.0709,-0.2317 -0.0407,-0.3533 0.1668,-0.4887 0.0621,-0.052 0.0982,-0.0407 0.1742,-0.0055l0.0566 0.0289 0.0318 0.027 0.0244 0.0359 0.0278 0.0609c0.0365,0.0766 0.0381,0.0578 -0.0001,0.1328l-0.0304 0.0596 -0.0253 0.0363 -0.014 0.1611c0.1664,0.2883 0.6537,0.4865 0.7773,0.1281l0.0508 -0.0671 -0.0085 -0.2287c-0.0519,0.0111 -0.0425,0.0251 -0.0425,-0.0226l-0.0948 0.0038c-0.1205,-0.0379 -0.1224,-0.0003 -0.2269,-0.0692 0.0063,-0.0042 0.015,-0.0092 0.0199,-0.011 0.0833,-0.0297 0.2976,-0.0966 0.345,-0.0064l0.0129 -0.0042c-0.0046,-0.0527 0.0164,-0.0112 -0.017,-0.0639l-0.0507 -0.0375 -0.1957 0.0208 0.0428 -0.0982zm1.9413 -0.2586l-3.13 -0.0014c-0.0558,0.4643 -0.0716,2.0299 0.0631,2.4169 0.2168,0.623 0.8103,1.0552 1.4757,1.0619 0.6775,0.0067 1.2734,-0.4262 1.4978,-1.0406 0.1465,-0.4012 0.1294,-1.9577 0.0934,-2.4368z"/>
    <path class="fil4" d="M6.076 6.6144c-0.1744,-0.094 -0.4275,-0.0708 -0.4664,-0.4064 -0.0682,-0.1034 -0.0406,-0.2307 -0.0502,-0.3575l-0.0643 0.065 -0.0516 -0.0552c-0.0423,0.3941 -0.0068,0.6852 -0.4955,0.7535 0.049,0.1118 0.1661,0.0919 0.2709,0.1115l-0.0223 0.24c0.1347,-0.0218 0.16,-0.2129 0.1502,-0.3281 -0.0808,0.0652 -0.0049,0.057 -0.1101,0.0737l0.2049 -0.3423c0.0425,0.2587 -0.1235,0.3356 0.0538,0.7085 0.1937,-0.2623 0.0341,-0.4915 0.0593,-0.7051 0.1452,0.1537 0.1577,0.5273 0.5213,0.2424zm-0.3222 -1.117c0.0458,-0.106 0.0776,-0.1336 0.0864,-0.2557l-0.0271 -0.3732 -0.1753 -0.0414c-0.058,0.0822 -0.0536,0.1541 -0.1477,0.2191 -0.0981,-0.0558 -0.0998,-0.1265 -0.1405,-0.2364l-0.1946 0.0444c0.0627,-0.1262 0.0066,-0.0184 0.1079,-0.0492 0.0827,-0.0251 0.0229,-0.0347 0.1245,-0.0743 0.0265,0.0932 0.0217,0.187 0.0992,0.2557 0.1034,-0.0677 0.091,-0.1445 0.0983,-0.2633 0.1492,0.1091 0.0597,0.0806 0.2475,0.0854l0.0741 0.1857c0.1951,0.016 0.2348,-0.035 0.3929,-0.0468 -0.0045,0.1739 -0.0214,0.3846 0.0033,0.5641 0.0631,0.457 0.084,0.3424 0.1178,0.5132 -0.1773,-0.1408 -0.1113,-0.6102 -0.1948,-0.7545 -0.0682,0.0495 -0.0389,0.0529 -0.0444,0.1597 -0.0173,0.1972 0.0063,0.6186 0.2228,0.6871l0.1644 0.003c-0.0617,-0.078 -0.0486,-0.0351 -0.0705,-0.1614 -0.0623,-0.1409 -0.0883,-0.2543 -0.0882,-0.409 -0.0782,-0.1133 -0.0201,-0.267 -0.0926,-0.3587l0.1113 -0.0423 0.0074 -0.209c-0.1202,-0.0552 0.0131,0.0395 -0.1176,-0.0163l0.1461 -0.0698c0.0155,0.2223 -0.0061,0.2117 0.1563,0.2141 -0.1558,0.1171 -0.0268,0.4472 0.0131,0.6077 -0.1346,-0.1501 -0.0502,-0.4289 -0.1381,-0.5877 -0.0707,0.1017 -0.0227,0.1572 -0.0281,0.2982 -0.0096,0.2002 0.1039,0.5519 0.3435,0.3454 -0.0647,-0.1081 -0.1042,-0.0701 -0.139,-0.2585 -0.0221,-0.1195 -0.0308,-0.2774 -0.0325,-0.3987 -0.0513,-0.0903 -0.0241,-0.1746 -0.0381,-0.3041 -0.0698,0.0619 -0.0455,0.0628 -0.1312,0.0783 0.1007,-0.1089 0.1353,-0.1708 0.221,-0.2728 -0.0012,0.1123 -0.1292,0.2652 0.0626,0.2957l0.0055 -0.3181c-0.1153,-0.0377 0.0978,-0.0061 -0.0288,0.0014 -0.0054,0.0004 -0.0073,0.0727 -0.0255,0.0014 -0.0012,-0.0047 -0.0096,0.0005 -0.0136,-0.0004l0.1002 -0.2084 -0.0648 0.5516c-0.0498,0.0993 -0.0308,0.0595 -0.0159,0.1849l-0.0055 0.0333c0.1043,0.0775 0.1152,0.109 0.2262,0.0192 -0.0959,-0.2482 -0.0949,-0.2349 -0.0759,-0.6349 0.0577,-0.0421 0.0445,0.0349 0.031,-0.0699 -0.0511,-0.1608 0.0017,-0.3608 -0.1115,-0.4536 -0.124,-0.1017 -0.3315,-0.0476 -0.3673,0.114 -0.0514,0.2326 0.1535,0.1891 0.049,0.4296 -0.0567,0.1306 -0.1975,0.2161 -0.3331,0.2457 -0.1017,0.0574 -0.1337,0.0492 -0.2562,0.0493 -0.0979,-0.0663 -0.1699,-0.0878 -0.2027,-0.2007 0.0174,-0.1247 -0.0355,-0.2344 0.1215,-0.2616l0.0008 -0.0636c-0.0413,-0.0399 -0.0432,0.057 -0.0319,-0.0562l0.0654 -0.0221 -0.001 -0.0447c-0.0492,0.0066 -0.0397,0.0187 -0.0354,-0.0285l-0.0262 -0.0323 -0.0333 -0.0216 -0.048 -0.0156 -0.0505 -0.0348 -0.0631 -0.0272c-0.1375,0.006 -0.0436,0.0024 -0.0777,-0.0326l-0.0921 0.0348c0.0151,0.0282 0.1059,-0.0402 -0.02,0.1035l-0.01 -0.1037c-0.0649,-0.0766 -0.1118,-0.058 -0.2054,-0.0446l-0.023 0.0592 0.0002 0.0547 0.1527 0.0227 0.0507 0.0375 0.0813 0.0644c-0.0329,-0.0996 -0.0312,-0.0469 0.0034,-0.1524 0.1102,-0.0009 0.1413,0.0132 0.2302,0.0898 -0.0799,0.0696 -0.0521,0.0474 -0.1697,0.0713l-0.0377 0.0089c-0.0431,0.1495 -0.0086,0.0718 -0.0687,0.0847l-0.0218 -0.1028 -0.0129 0.0042c-0.0464,0.0521 -0.0121,-0.0139 0.004,0.0547l-0.142 0.0319 0.0948 -0.0038 0.0425 0.0226 0.1216 0.0586 -0.0722 0.0174 -0.0409 0.1527 -0.0508 0.0671c-0.1236,0.3584 -0.6109,0.1602 -0.7773,-0.1281 -0.0083,-0.071 -0.0307,-0.1102 0.014,-0.1611l0.0253 -0.0363 0.0304 -0.0596 0.0001 -0.1328 -0.0278 -0.0609 -0.0244 -0.0359 -0.0318 -0.027 -0.0566 -0.0289 -0.1742 0.0055c-0.2075,0.1354 -0.0959,0.257 -0.1668,0.4887 -0.01,0.1055 -0.0243,0.0253 0.0329,0.0696 0.0048,0.1211 0.0055,0.2612 -0.0001,0.3824 -0.008,0.1744 -0.0359,0.1389 -0.0758,0.2533 0.1125,0.0895 0.1226,0.0563 0.2252,-0.0234l-0.0067 -0.035c0.0142,-0.1236 0.0312,-0.0803 -0.0139,-0.1829 -0.0521,0.1099 0.0061,0.1076 -0.0634,0.1588l0.0092 -0.7078c0.0699,0.0795 0.036,0.0487 0.0664,0.1449 0.0305,0.0964 0.0355,0.0578 0.0328,0.1554l-0.07 -0.1172c-0.016,0.123 -0.0408,0.2594 0.0309,0.3508 0.124,-0.043 0.0652,-0.1246 0.071,-0.2525l0.1413 0.1649c-0.1402,0.0498 0.0131,-0.0444 -0.1003,0.0014 -0.0096,0.1456 -0.0281,0.171 0.0369,0.2932l-0.0684 -0.0191c-0.0019,0.1165 -0.0098,0.2613 -0.0285,0.3767 -0.0329,0.2023 -0.0758,0.168 -0.1433,0.2876 0.2512,0.2122 0.3567,-0.1771 0.3462,-0.3755 -0.0046,-0.1283 0.032,-0.1668 -0.0252,-0.2735 -0.0941,0.1634 -0.0094,0.4367 -0.1419,0.5888 0.0487,-0.2094 0.0934,-0.3493 0.0798,-0.5846 0.1115,-0.0806 0.1355,-0.1521 0.0488,-0.2725l0.1872 0.1053c-0.132,0.0566 -0.0001,-0.0363 -0.1212,0.0191l0.0146 0.2176 0.1031 0.0415c-0.0617,0.0698 -0.0195,0.169 -0.0791,0.2888 -0.0023,0.1898 -0.0374,0.3477 -0.1195,0.5175l-0.0712 0.109 0.1905 0.0119c0.2276,-0.1327 0.244,-0.5584 0.2293,-0.8012 -0.0258,-0.0625 0.0137,-0.0344 -0.0555,-0.0514 -0.0991,0.1572 -0.0011,0.559 -0.1983,0.7618 0.0232,-0.0873 0.0616,-0.1571 0.0843,-0.2621 0.0448,-0.2066 0.0631,-0.3845 0.0397,-0.5831 -0.0165,-0.1394 0.0543,-0.0957 -0.0169,-0.2422 0.1545,0.008 0.2301,0.0556 0.4348,0.0494l0.0555 0.2973 -0.0137 0.0235c0.0803,0.0875 0.094,0.1668 0.1549,0.272 0.0526,0.091 0.1258,0.1853 0.1795,0.2602 0.0824,-0.0697 0.0594,-0.079 0.1152,-0.1619 0.0394,-0.0585 0.0975,-0.1395 0.146,-0.1911zm-0.6171 0.1251l0.0058 0.0055 -0.0434 0.0637 -0.0333 0.1287c0.0273,0.136 0.0531,0.1109 0.123,0.2248l0.0451 0.0503 0.1286 -0.2609c0.0082,-0.1091 -0.0701,-0.2206 -0.1425,-0.3065l-0.0833 0.0944zm0.5716 0.3219l0.0494 0.1475c0.0724,-0.0637 0.1552,-0.1765 0.1745,-0.2694l-0.0104 -0.0512 -0.0228 -0.0603 -0.036 -0.1121 -0.0731 -0.0983 -0.1525 0.2395 0.0709 0.2043zm0.5738 0.6025l0.0084 0.0206 0.0764 0.0495c-0.0075,-0.1183 -0.0026,-0.0941 -0.0696,-0.1812l0.227 0.087c-0.0093,-0.1481 -0.0104,-0.0839 -0.1503,-0.151 0.1239,-0.0128 0.1362,-0.0283 0.2317,0.0351l-0.0218 -0.1059c-0.2086,-0.049 -0.2779,0.0711 -0.4219,-0.082 -0.0783,-0.0833 -0.184,-0.1943 -0.2356,-0.295l-0.0674 0.0553 0.2517 0.3211c-0.1048,0.0647 -0.0534,-0.0021 -0.1455,0.0939l0.0468 0.0146c0.0923,0.0078 0.0546,-0.0185 0.1321,0.0074 0.0667,0.0223 0.1032,0.0769 0.138,0.1306z"/>
    <path class="fil5" d="M6.248 4.9972c0.0078,0.1054 0.0268,0.1497 -0.0266,0.2358 -0.1293,-0.0128 -0.131,-0.118 -0.0956,-0.2225l0.1222 -0.0133zm-1.1894 0.2577c-0.1357,0.004 -0.1197,-0.064 -0.1328,-0.2167l0.1849 0.002 -0.0521 0.2147zm-0.3053 -0.2613l0.1289 0.0166c0.0087,0.0577 0.0174,0.1284 -0.0122,0.1873 -0.0327,0.0654 -0.0318,0.0384 -0.1197,0.0259l0.003 -0.2298zm1.0869 0.2481l0.0585 -0.0851 -0.0095 -0.1177 0.1814 0.002c-0.0216,0.2192 0.0027,0.1938 -0.1388,0.2342 0.135,0.1281 -0.0095,0.2156 0.1077,0.4134 -0.0158,-0.1174 -0.0569,-0.317 0.0068,-0.4246 0.0305,0.097 0.0137,0.2614 0.068,0.3462l-0.0194 -0.358c0.0927,0.114 0.0243,0.0946 0.0864,0.1778 0.0055,-0.1068 -0.0238,-0.1102 0.0444,-0.1597 0.0835,0.1443 0.0175,0.6137 0.1948,0.7545 -0.0338,-0.1708 -0.0547,-0.0562 -0.1178,-0.5132 -0.0247,-0.1795 -0.0078,-0.3902 -0.0033,-0.5641 -0.1581,0.0118 -0.1978,0.0628 -0.3929,0.0468l-0.0741 -0.1857c-0.1878,-0.0048 -0.0983,0.0237 -0.2475,-0.0854 -0.0073,0.1188 0.0051,0.1956 -0.0983,0.2633 -0.0775,-0.0687 -0.0727,-0.1625 -0.0992,-0.2557 -0.1016,0.0396 -0.0418,0.0492 -0.1245,0.0743 -0.1013,0.0308 -0.0452,-0.077 -0.1079,0.0492l0.1946 -0.0444c0.0407,0.1099 0.0424,0.1806 0.1405,0.2364 0.0941,-0.065 0.0897,-0.1369 0.1477,-0.2191l0.1753 0.0414 0.0271 0.3732zm0.5696 0.3079l-0.0285 -0.3518c0.0876,0.1057 0.0278,0.0841 0.0863,0.188 0.0054,-0.141 -0.0426,-0.1965 0.0281,-0.2982 0.0879,0.1588 0.0035,0.4376 0.1381,0.5877 -0.0399,-0.1605 -0.1689,-0.4906 -0.0131,-0.6077 -0.1624,-0.0024 -0.1408,0.0082 -0.1563,-0.2141l-0.1461 0.0698c0.1307,0.0558 -0.0026,-0.0389 0.1176,0.0163l-0.0074 0.209 -0.1113 0.0423c0.0725,0.0917 0.0144,0.2454 0.0926,0.3587zm0.2298 -0.4756l0.0107 -0.1969c0.0261,0.0831 -0.0157,0.1678 0.0607,0.2064 -0.0149,-0.1254 -0.0339,-0.0856 0.0159,-0.1849l0.0648 -0.5516 -0.1002 0.2084c0.004,0.0009 0.0124,-0.0043 0.0136,0.0004 0.0182,0.0713 0.0201,-0.001 0.0255,-0.0014 0.1266,-0.0075 -0.0865,-0.0391 0.0288,-0.0014l-0.0055 0.3181c-0.1918,-0.0305 -0.0638,-0.1834 -0.0626,-0.2957 -0.0857,0.102 -0.1203,0.1639 -0.221,0.2728 0.0857,-0.0155 0.0614,-0.0164 0.1312,-0.0783 0.014,0.1295 -0.0132,0.2138 0.0381,0.3041zm-0.7325 0.1344l-0.0036 0.0801c0.1032,-0.1355 0.0293,-0.0512 0.0036,-0.0801zm-1.0788 0.1166l0.0519 -0.0911 0.0118 0.3067 0.0544 -0.2733c0.0819,0.1253 -0.0027,0.3114 0.0284,0.4216 0.0305,-0.1223 0.0101,-0.3088 0.0707,-0.3929 0.0532,0.0627 0.0474,-0.0062 0.034,0.1474 -0.0057,0.066 -0.0172,0.1023 -0.0197,0.1748 0.0753,-0.0383 0.0512,-0.2872 0.0564,-0.3791l0.0557 0.0556 -0.0555 -0.2973c-0.2047,0.0062 -0.2803,-0.0414 -0.4348,-0.0494 0.0712,0.1465 0.0004,0.1028 0.0169,0.2422 0.0234,0.1986 0.0051,0.3765 -0.0397,0.5831 -0.0227,0.105 -0.0611,0.1748 -0.0843,0.2621 0.1972,-0.2028 0.0992,-0.6046 0.1983,-0.7618 0.0692,0.017 0.0297,-0.0111 0.0555,0.0514zm0.2708 0.3667l0.0434 -0.0637c-0.0569,0.0165 -0.0452,-0.051 -0.0434,0.0637zm-0.566 -0.3344c0.0535,-0.0974 0.0012,-0.0624 0.0711,-0.1619l-0.005 0.2924c0.0596,-0.1198 0.0174,-0.219 0.0791,-0.2888l-0.1031 -0.0415 -0.0146 -0.2176c0.1211,-0.0554 -0.0108,0.0375 0.1212,-0.0191l-0.1872 -0.1053c0.0867,0.1204 0.0627,0.1919 -0.0488,0.2725 0.0136,0.2353 -0.0311,0.3752 -0.0798,0.5846 0.1325,-0.1521 0.0478,-0.4254 0.1419,-0.5888 0.0572,0.1067 0.0206,0.1452 0.0252,0.2735zm-0.2469 -0.2787c0.0711,-0.0052 0.0409,-0.1268 0.061,-0.1988l0.0115 0.1887 0.0684 0.0191c-0.065,-0.1222 -0.0465,-0.1476 -0.0369,-0.2932 0.1134,-0.0458 -0.0399,0.0484 0.1003,-0.0014l-0.1413 -0.1649c-0.0058,0.1279 0.053,0.2095 -0.071,0.2525 -0.0717,-0.0914 -0.0469,-0.2278 -0.0309,-0.3508l0.07 0.1172c0.0027,-0.0976 -0.0023,-0.059 -0.0328,-0.1554 -0.0304,-0.0962 0.0035,-0.0654 -0.0664,-0.1449l-0.0092 0.7078c0.0695,-0.0512 0.0113,-0.0489 0.0634,-0.1588 0.0451,0.1026 0.0281,0.0593 0.0139,0.1829zm1.8377 -0.3117c-0.2734,0.0207 -0.2696,0.0347 -0.4589,-0.1514 0.0328,0.1129 0.1048,0.1344 0.2027,0.2007 0.1225,-0.0001 0.1545,0.0081 0.2562,-0.0493z"/>
    <path class="fil5" d="M5.6589 6.6226c0.0675,0.1601 0.1245,0.0262 0.1421,0.3499 -0.1399,-0.0438 -0.1651,-0.2114 -0.1421,-0.3499zm-0.0493 -0.4146c-0.0061,-0.1465 -0.0257,-0.2363 0.0054,-0.381l0.0933 0.1174 -0.0709 -0.2043 0.1525 -0.2395 -0.0361 -0.0032c-0.0485,0.0516 -0.1066,0.1326 -0.146,0.1911 -0.0558,0.0829 -0.0328,0.0922 -0.1152,0.1619 -0.0537,-0.0749 -0.1269,-0.1692 -0.1795,-0.2602 -0.0609,-0.1052 -0.0746,-0.1845 -0.1549,-0.272l0.0546 0.1648 -0.0761 0.1395 0.0833 -0.0944c0.0724,0.0859 0.1507,0.1974 0.1425,0.3065 0.0909,0.0601 0.026,0.429 -0.0288,0.5218 -0.1178,0.1995 -0.215,0.1929 -0.4227,0.2278 0.0486,0.1457 0.1267,0.1685 0.2789,0.162l-0.0336 0.2604c0.1284,-0.0197 0.1283,-0.0591 0.203,-0.1367l0.136 0.2493 0.1288 -0.2634c0.0758,0.0657 0.0959,0.1327 0.2077,0.1522l-0.0285 -0.2595c0.1648,0.0062 0.203,0.0045 0.2727,-0.1341 -0.3636,0.2849 -0.3761,-0.0887 -0.5213,-0.2424 -0.0252,0.2136 0.1344,0.4428 -0.0593,0.7051 -0.1773,-0.3729 -0.0113,-0.4498 -0.0538,-0.7085l-0.2049 0.3423c0.1052,-0.0167 0.0293,-0.0085 0.1101,-0.0737 0.0098,0.1152 -0.0155,0.3063 -0.1502,0.3281l0.0223 -0.24c-0.1048,-0.0196 -0.2219,0.0003 -0.2709,-0.1115 0.4887,-0.0683 0.4532,-0.3594 0.4955,-0.7535l0.0516 0.0552 0.0643 -0.065c0.0096,0.1268 -0.018,0.2541 0.0502,0.3575z"/>
    <path class="fil4" d="M5.0113 6.0049l-0.0251 0.037 -0.0247 0.0371 -0.0698 0.0731 -0.0274 0.0326 -0.0275 0.0317 -0.0306 0.0293 -0.0343 0.0277c-0.0828,0.058 -0.2423,0.0103 -0.3512,0.0263l-0.0366 0.0699c0.0823,0.0279 0.002,-0.0443 0.2445,0.0086l-0.1206 0.0352 -0.0322 0.0848 0.0881 -0.0293 0.0042 0.0024 0.1561 -0.0348 -0.0633 0.0739 -0.0036 -0.0085 -0.0173 0.0891c0.1121,-0.0428 0.0945,-0.2682 0.3712,-0.1766l-0.0451 -0.0803 -0.0764 -0.0311 0.0812 -0.096 0.1312 -0.1678 0.0304 -0.0231 -0.03 -0.0797c-0.0938,0.0453 -0.0196,-0.0154 -0.0912,0.0685z"/>
    <path class="fil4" d="M5.8987 5.1566l0.0084 0.0518c0.0257,0.0289 0.0996,-0.0554 -0.0036,0.0801l0.0182 0.3194 0.0081 0.0595c0.0845,0.1011 0.0476,0.0789 0.1788,0.1281l0.0136 -0.0646 -0.0079 -0.1208c-0.0543,-0.0848 -0.0375,-0.2492 -0.068,-0.3462 -0.0637,0.1076 -0.0226,0.3072 -0.0068,0.4246 -0.1172,-0.1978 0.0273,-0.2853 -0.1077,-0.4134 0.1415,-0.0404 0.1172,-0.015 0.1388,-0.2342l-0.1814 -0.002 0.0095 0.1177z"/>
    <path class="fil5" d="M5.3428 4.2069c-0.0474,-0.0902 -0.2617,-0.0233 -0.345,0.0064 -0.0049,0.0018 -0.0136,0.0068 -0.0199,0.011 0.1045,0.0689 0.1064,0.0313 0.2269,0.0692l0.142 -0.0319c-0.0161,-0.0686 -0.0504,-0.0026 -0.004,-0.0547zm-0.0041 -0.0681l-0.0507 -0.0375 -0.1527 -0.0227 -0.0002 -0.0547 -0.0428 0.0982 0.1957 -0.0208 0.0507 0.0375c0.0334,0.0527 0.0124,0.0112 0.017,0.0639l0.0218 0.1028c0.0601,-0.0129 0.0256,0.0648 0.0687,-0.0847l0.0377 -0.0089c0.1176,-0.0239 0.0898,-0.0017 0.1697,-0.0713 -0.0889,-0.0766 -0.12,-0.0907 -0.2302,-0.0898 -0.0346,0.1055 -0.0363,0.0528 -0.0034,0.1524l-0.0813 -0.0644zm0.0548 -0.1293l-0.03 -0.0002 0.01 0.1037c0.1259,-0.1437 0.0351,-0.0753 0.02,-0.1035zm-0.0514 0.3028l-0.0425 -0.0226c0,0.0477 -0.0094,0.0337 0.0425,0.0226l0.0085 0.2287 -0.0508 0.0671 0.0508 -0.0671 0.0409 -0.1527 0.0722 -0.0174 -0.1216 -0.0586z"/>
    <path class="fil4" d="M4.892 5.5406l-0.0243 0.2549c0.1333,-0.0157 0.1774,-0.0425 0.1921,-0.1773 0.0025,-0.0725 0.014,-0.1088 0.0197,-0.1748 0.0134,-0.1536 0.0192,-0.0847 -0.034,-0.1474 -0.0606,0.0841 -0.0402,0.2706 -0.0707,0.3929 -0.0311,-0.1102 0.0535,-0.2963 -0.0284,-0.4216l-0.0544 0.2733z"/>
    <path class="fil4" d="M5.0586 5.2549l0.0521 -0.2147 -0.1849 -0.002c0.0131,0.1527 -0.0029,0.2207 0.1328,0.2167z"/>
    <path class="fil4" d="M4.7503 5.2234c0.0879,0.0125 0.087,0.0395 0.1197,-0.0259 0.0296,-0.0589 0.0209,-0.1296 0.0122,-0.1873l-0.1289 -0.0166 -0.003 0.2298z"/>
    <path class="fil4" d="M6.1258 5.0105c-0.0354,0.1045 -0.0337,0.2097 0.0956,0.2225 0.0534,-0.0861 0.0344,-0.1304 0.0266,-0.2358l-0.1222 0.0133z"/>
    <path class="fil6" d="M6.3109 6.618c0.0282,-0.0464 0.1138,0.0782 0.0171,0.0125 -0.0017,-0.0011 -0.0208,-0.0065 -0.0171,-0.0125zm0.1876 -0.056c0,-0.0064 -0.0079,0.0204 -0.012,0.0154l0.012 -0.0154zm-0.208 0.0055l0.0061 0.1143c0.1316,-0.0204 0.0876,-0.1064 0.0709,-0.2018 0.106,0.0245 0.0807,0.04 0.1234,0.1208 0.1149,-0.0986 0.0184,-0.0823 0.1148,-0.1939 -0.0955,-0.0634 -0.1078,-0.0479 -0.2317,-0.0351 0.1399,0.0671 0.141,0.0029 0.1503,0.151l-0.227 -0.087c0.067,0.0871 0.0621,0.0629 0.0696,0.1812l-0.0764 -0.0495z"/>
    <path class="fil5" d="M4.9838 6.4596c-0.0096,-0.0092 0.0225,0.0216 0,0zm-0.3265 0.0423c-0.0717,0.1067 -0.078,0.1417 0.0531,0.1852 -0.0309,-0.1637 0.0682,-0.2495 0.2201,-0.2747l0.0253 0.0871c0.1038,-0.0364 0.0859,-0.03 0.0835,-0.1368l-0.0732 -0.0286 0.0451 0.0803c-0.2767,-0.0916 -0.2591,0.1338 -0.3712,0.1766l0.0173 -0.0891z"/>
    <path class="fil4" d="M5.6589 6.6226c-0.023,0.1385 0.0022,0.3061 0.1421,0.3499 -0.0176,-0.3237 -0.0746,-0.1898 -0.1421,-0.3499z"/>
    <path class="fil6" d="M5.9849 6.4397c0.0043,-0.0043 0.0138,0.006 0.0138,0.0121l0 0c-0.0014,-0.0012 -0.0182,-0.0078 -0.0138,-0.0121zm-0.2272 -0.3478l0.0164 0.0359c0.0661,-0.1116 0.0113,-0.0539 0.0902,-0.1002l0.2157 0.2539c-0.0791,0.0858 -0.159,0.0502 -0.0974,0.2056l0.0631 0.018c0.0161,-0.0527 -0.0258,0.0094 0.0291,-0.0928 0.1302,0.0308 0.1166,0.0562 0.2073,0.1346 -0.0348,-0.0537 -0.0713,-0.1083 -0.138,-0.1306 -0.0775,-0.0259 -0.0398,0.0004 -0.1321,-0.0074l-0.0468 -0.0146c0.0921,-0.096 0.0407,-0.0292 0.1455,-0.0939l-0.2517 -0.3211 0.0674 -0.0553 0.0058 -0.1015c-0.0193,0.0929 -0.1021,0.2057 -0.1745,0.2694z"/>
    <path class="fil6" d="M4.4207 6.2997c0.1089,-0.016 0.2684,0.0317 0.3512,-0.0263l0.0343 -0.0277 0.0306 -0.0293 0.0275 -0.0317 0.0274 -0.0326 0.0698 -0.0731 0.0247 -0.0371 0.0251 -0.037c0.0716,-0.0839 -0.0026,-0.0232 0.0912,-0.0685l0.03 0.0797 -0.0304 0.0231 0.0304 -0.0231 0.0563 0.0291c-0.0699,-0.1139 -0.0957,-0.0888 -0.123,-0.2248 -0.0355,0.1294 0.0451,0.037 -0.0545,0.1845l-0.0251 0.037 -0.0247 0.0371 -0.0698 0.0731 -0.0274 0.0326 -0.0275 0.0317 -0.0306 0.0293 -0.0343 0.0277 -0.3512 0.0263 -0.0491 0.0642 0.0718 0.0745c0.0285,-0.0191 0.0423,-0.0162 0.0646,-0.025l0.1206 -0.0352c-0.2425,-0.0529 -0.1622,0.0193 -0.2445,-0.0086l0.0366 -0.0699z"/>
    <path class="fil6" d="M5.8402 5.2417c-0.0088,0.1221 -0.0406,0.1497 -0.0864,0.2557l0.0361 0.0032 0.0731 0.0983c-0.0548,-0.1421 -0.1166,-0.1367 0.0086,-0.2768l0.0501 0.2858 -0.0182 -0.3194 0.0036 -0.0801 -0.0084 -0.0518 -0.0585 0.0851z"/>
    <path class="fil6" d="M6.7055 5.1168c0.0747,0.1087 0.1504,0.1171 0.2425,0.0174 -0.0537,-0.2258 -0.0547,0.16 -0.0883,-0.5829l0.0271 -0.1201c0.0135,0.1048 0.0267,0.0278 -0.031,0.0699 -0.019,0.4 -0.02,0.3867 0.0759,0.6349 -0.111,0.0898 -0.1219,0.0583 -0.2262,-0.0192z"/>
    <path class="fil5" d="M4.4855 6.5414c0,0 -0.0138,0.0467 0,0zm-0.0421 -0.103c0.0036,0.1267 -0.0294,0.0657 0.0446,0.1492 0.0864,-0.0287 -0.0105,0.0343 0.0759,-0.1187l-0.0881 0.0293 0.0322 -0.0848c-0.0223,0.0088 -0.0361,0.0059 -0.0646,0.025z"/>
    <path class="fil5" d="M6.4041 6.117c0.0548,0.0869 0.1265,0.0353 0.1991,-0.0013 -0.0016,-0.005 -0.005,-0.0181 -0.0062,-0.0145l-0.099 -0.1426c0.0219,0.1263 0.0088,0.0834 0.0705,0.1614l-0.1644 -0.003z"/>
    <path class="fil6" d="M4.1107 4.4317l0.0326 0.116c-0.0096,0.1172 -0.0064,0.224 -0.0093,0.3364 -0.0042,0.1649 -0.0608,0.1546 -0.0833,0.2525 0.1226,0.1264 0.1705,0.0486 0.2422,-0.023 -0.1026,0.0797 -0.1127,0.1129 -0.2252,0.0234 0.0399,-0.1144 0.0678,-0.0789 0.0758,-0.2533 0.0056,-0.1212 0.0049,-0.2613 0.0001,-0.3824 -0.0572,-0.0443 -0.0429,0.0359 -0.0329,-0.0696z"/>
    <path class="fil5" d="M5.5633 4.0073l0.0631 0.0272 0.0505 0.0348 0.048 0.0156 0.0333 0.0216 0.0262 0.0323c-0.0043,0.0472 -0.0138,0.0351 0.0354,0.0285l0.001 0.0447 -0.0654 0.0221c-0.0113,0.1132 -0.0094,0.0163 0.0319,0.0562l-0.0008 0.0636 0.0602 -0.0276 -0.0594 -0.036 0.0335 -0.0783 0.0464 -0.0054 -0.0474 -0.0393 -0.0354 -0.0285c0.0039,-0.0428 0.0146,-0.0339 -0.0262,-0.0323 0.0026,-0.0421 0.0105,-0.0311 -0.0333,-0.0216l-0.048 -0.0156 -0.0505 -0.0348 -0.0631 -0.0272 -0.0777 -0.0326c0.0341,0.035 -0.0598,0.0386 0.0777,0.0326z"/>
    <path class="fil6" d="M4.4517 3.9375l0.0566 0.0289 0.0318 0.027 0.0244 0.0359 0.0278 0.0609 -0.0001 0.1328 -0.0304 0.0596 -0.0253 0.0363c-0.0447,0.0509 -0.0223,0.0901 -0.014,0.1611l0.014 -0.1611 0.0253 -0.0363 0.0304 -0.0596c0.0382,-0.075 0.0366,-0.0562 0.0001,-0.1328l-0.0278 -0.0609 -0.0244 -0.0359 -0.0318 -0.027 -0.0566 -0.0289c-0.076,-0.0352 -0.1121,-0.0465 -0.1742,0.0055l0.1742 -0.0055z"/>
    <path class="fil6" d="M4.599 6.1262l-0.1905 -0.0119 0.0712 -0.109 -0.1075 0.087c0.0801,0.0727 0.1373,0.0728 0.2268,0.0339z"/>
    <path class="fil6" d="M5.9298 5.6674c0.0302,0.1047 0.1165,0.1345 0.2239,0.1486l-0.0315 -0.0851 -0.0136 0.0646c-0.1312,-0.0492 -0.0943,-0.027 -0.1788,-0.1281zm-0.008 0.1039l-0.0228 -0.0603 0.0228 0.0603z"/>
    <polygon class="fil5" points="4.5681,6.4713 4.6421,6.4548 4.6609,6.5104 4.7242,6.4365 "/>
    <polygon class="fil6" points="4.9661,6.3341 4.918,6.2887 4.9709,6.207 4.8897,6.303 "/>
    <path class="fil4" d="M6.3109 6.618c-0.0037,0.006 0.0154,0.0114 0.0171,0.0125 0.0967,0.0657 0.0111,-0.0589 -0.0171,-0.0125z"/>
    <path class="fil4" d="M6.4865 6.5774c0.0041,0.005 0.012,-0.0218 0.012,-0.0154 0,0.0027 0.0052,-0.0066 0.0049,-0.0063 -0.0009,0.0013 -0.0712,-0.0436 -0.0169,0.0217z"/>
    <path class="fil4" d="M5.9987 6.4518c0,-0.0061 -0.0095,-0.0164 -0.0138,-0.0121l0.0138 0.0121z"/>
    <path class="fil4" d="M4.9838 6.4596c0.0225,0.0216 -0.0096,-0.0092 0,0z"/>
    <path class="fil4" d="M4.4855 6.5414c-0.0138,0.0467 0,0 0,0z"/>
   </g>
   <circle class="fil7" transform="matrix(-0.220854 0.147173 -0.147173 -0.220854 5.5003 5.50702)" r="16.9333"/>
   <path class="fil8" d="M3.4883 10.0481c-0.0311,-0.0134 -0.0574,-0.0288 -0.079,-0.0461 -0.0216,-0.0175 -0.0382,-0.0363 -0.0495,-0.0566 -0.0113,-0.0203 -0.0174,-0.042 -0.0184,-0.0647 -0.001,-0.0226 0.0038,-0.0459 0.014,-0.0698 0.0104,-0.024 0.0241,-0.0434 0.0413,-0.0582 0.0171,-0.0149 0.0371,-0.0251 0.0596,-0.0309 0.0226,-0.0056 0.0476,-0.0066 0.0751,-0.0028 0.0276,0.0038 0.0568,0.0124 0.0878,0.0258l0.1332 0.0575 0.0562 -0.1299 0.0898 0.0386 -0.1872 0.4334 -0.2229 -0.0963zm0.1533 0.0109l0.0906 -0.21 -0.1331 -0.0575c-0.0327,-0.0141 -0.0617,-0.0165 -0.087,-0.0071 -0.0254,0.0092 -0.0458,0.0317 -0.0613,0.0676 -0.0154,0.0358 -0.0178,0.0661 -0.0073,0.0909 0.0106,0.025 0.0322,0.0444 0.0648,0.0585l0.1333 0.0576z"/>
   <path id="1" class="fil8" d="M3.2059 9.4099c-0.0192,-0.0109 -0.038,-0.0181 -0.0565,-0.0217 -0.0185,-0.0034 -0.0363,-0.0026 -0.0536,0.0024 -0.0174,0.0049 -0.0339,0.0144 -0.0498,0.0283 -0.016,0.014 -0.0309,0.0332 -0.0446,0.0575l-0.1381 0.244 -0.0852 -0.0482 0.138 -0.2439c0.0343,-0.0605 0.078,-0.0949 0.1317,-0.1036 0.0535,-0.0088 0.114,0.0059 0.1815,0.044 0.0677,0.0384 0.1115,0.0828 0.1314,0.133 0.0198,0.0502 0.0128,0.1057 -0.0215,0.166l-0.1381 0.2439 -0.0851 -0.0481 0.1381 -0.2439c0.0137,-0.0245 0.0224,-0.0471 0.0263,-0.0679 0.0039,-0.0209 0.0033,-0.04 -0.0013,-0.0574 -0.0047,-0.0174 -0.0132,-0.0331 -0.0257,-0.0471 -0.0125,-0.014 -0.0283,-0.0266 -0.0475,-0.0373z"/>
   <path id="2" class="fil8" d="M2.7162 9.0835c-0.0243,-0.0186 -0.0508,-0.0322 -0.0796,-0.0408 -0.0288,-0.0087 -0.0606,-0.0114 -0.0955,-0.0078l-0.0023 -0.0528c0.0349,-0.0033 0.071,0.0005 0.1083,0.0115 0.0375,0.0112 0.0724,0.0291 0.105,0.054 0.0337,0.0256 0.0607,0.0531 0.0811,0.0822 0.0206,0.0292 0.034,0.0595 0.0403,0.0909 0.0064,0.0314 0.0054,0.0634 -0.0031,0.0961 -0.0084,0.0325 -0.0249,0.0648 -0.0495,0.0971 -0.0246,0.0321 -0.0514,0.0568 -0.0804,0.0736 -0.0291,0.0169 -0.0593,0.0266 -0.0909,0.029 -0.0316,0.0027 -0.0639,-0.0021 -0.097,-0.0136 -0.033,-0.0116 -0.0657,-0.0297 -0.0978,-0.0542 -0.0326,-0.0249 -0.0591,-0.0539 -0.0797,-0.0871 -0.0205,-0.0332 -0.0338,-0.0671 -0.0396,-0.1016l0.0513 -0.0117c0.0059,0.0346 0.0168,0.0645 0.0327,0.0901 0.0159,0.0256 0.0361,0.0475 0.0605,0.0661 0.0193,0.0148 0.0398,0.0254 0.0613,0.0319 0.0216,0.0067 0.0434,0.0081 0.0654,0.0044 0.022,-0.0035 0.044,-0.0126 0.0662,-0.0271 0.0221,-0.0146 0.0437,-0.0357 0.0648,-0.0632 0.021,-0.0277 0.0357,-0.054 0.0438,-0.0793 0.0082,-0.0251 0.0108,-0.049 0.008,-0.0716 -0.0029,-0.0226 -0.0106,-0.0436 -0.0232,-0.0631 -0.0126,-0.0196 -0.0292,-0.0372 -0.0501,-0.053z"/>
   <polygon id="3" class="fil8" points="1.8846,8.918 2.2109,8.5766 2.2815,8.6442 2.139,8.7933 2.339,8.9846 2.4815,8.8354 2.5523,8.9031 2.226,9.2444 2.1553,9.1767 2.3042,9.0208 2.1042,8.8297 1.9552,8.9855 "/>
   <path id="4" class="fil8" d="M1.9511 8.5303l-0.129 -0.1649 -0.1347 0.2339 0.0042 0.0054 0.2595 -0.0744zm-0.3546 0.0459l0.254 -0.443 0.06 0.0767 -0.063 0.1057 0.1579 0.2022 0.118 -0.0356 0.06 0.0766 -0.4913 0.1398 -0.0956 -0.1224z"/>
   <path id="5" class="fil8" d="M1.3013 8.1584c-0.0181,-0.0286 -0.0313,-0.0561 -0.0394,-0.0826 -0.0081,-0.0267 -0.0111,-0.0515 -0.009,-0.0748 0.0021,-0.0231 0.0091,-0.0443 0.0211,-0.0637 0.0119,-0.0194 0.0289,-0.036 0.051,-0.05 0.0303,-0.0192 0.0608,-0.0279 0.0913,-0.026 0.0306,0.0018 0.0603,0.0136 0.0895,0.035l0.0744 -0.1792 0.0597 0.0941 -0.0663 0.1597 0.0066 0.0102 0.0778 0.1225 0.1195 -0.0759 0.0525 0.0827 -0.3984 0.253 -0.1303 -0.205zm0.1203 0.0955l0.1939 -0.1233 -0.0778 -0.1225c-0.0191,-0.03 -0.0418,-0.0482 -0.0678,-0.0545 -0.0263,-0.0062 -0.0558,0.0011 -0.089,0.0221 -0.0331,0.0211 -0.0523,0.0448 -0.0578,0.0712 -0.0054,0.0263 0.0015,0.0545 0.0207,0.0845l0.0778 0.1225z"/>
   <polygon id="6" class="fil8" points="0.9163,7.3245 1.2198,7.0807 1.2172,7.0745 0.7968,7.1295 0.7584,7.0394 1.2446,6.9755 1.3016,7.1091 1.0085,7.344 1.0111,7.3501 1.3835,7.3016 1.4404,7.4352 1.0574,7.7415 1.019,7.6514 1.35,7.3864 1.3474,7.3801 0.9613,7.4302 "/>
   <path id="7" class="fil8" d="M0.7114 6.6905c0.0058,0.0222 0.0152,0.0419 0.0283,0.0592 0.0129,0.0173 0.0293,0.0309 0.0493,0.0411 0.0198,0.01 0.0432,0.0161 0.07,0.018 0.0268,0.002 0.0569,-0.0015 0.0904,-0.0104 0.0334,-0.0089 0.0613,-0.0209 0.0837,-0.0357 0.0222,-0.0151 0.0395,-0.0319 0.0516,-0.0506 0.0124,-0.0185 0.0198,-0.0386 0.0225,-0.0601 0.0027,-0.0214 0.001,-0.0432 -0.0048,-0.0654 -0.0058,-0.0222 -0.0153,-0.0418 -0.0284,-0.0592 -0.0129,-0.0172 -0.0293,-0.031 -0.0492,-0.041 -0.0198,-0.0101 -0.0433,-0.0161 -0.07,-0.0181 -0.0268,-0.002 -0.0569,0.0015 -0.0904,0.0104 -0.0334,0.0088 -0.0614,0.0208 -0.0837,0.0358 -0.0222,0.015 -0.0395,0.0319 -0.0518,0.0506 -0.0122,0.0185 -0.0196,0.0387 -0.0224,0.06 -0.0026,0.0215 -0.001,0.0432 0.0049,0.0654zm-0.0459 0.0122c-0.0105,-0.0392 -0.0147,-0.0761 -0.0127,-0.1108 0.0019,-0.0347 0.0101,-0.0662 0.0244,-0.0946 0.0145,-0.0282 0.035,-0.0526 0.0616,-0.0732 0.0267,-0.0206 0.0595,-0.0361 0.0987,-0.0465 0.0392,-0.0104 0.0754,-0.0132 0.1088,-0.0086 0.0334,0.0046 0.0633,0.0157 0.0898,0.033 0.0265,0.0174 0.0492,0.0407 0.0682,0.0699 0.0189,0.0292 0.0336,0.0634 0.044,0.1025 0.0105,0.0391 0.0146,0.0762 0.0128,0.1111 -0.0019,0.0351 -0.01,0.0667 -0.0244,0.095 -0.0143,0.0282 -0.0349,0.0525 -0.0617,0.0729 -0.0267,0.0203 -0.0596,0.0357 -0.0988,0.0462 -0.0392,0.0103 -0.0754,0.0133 -0.1087,0.0089 -0.0333,-0.0043 -0.0633,-0.0153 -0.0897,-0.0327 -0.0266,-0.0173 -0.0493,-0.0408 -0.0683,-0.0703 -0.019,-0.0293 -0.0337,-0.0636 -0.044,-0.1028z"/>
   <path id="8" class="fil8" d="M1.0676 6.1624c0.0018,0.0161 0.0022,0.0324 0.0012,0.0484 -0.001,0.0162 -0.0032,0.032 -0.0066,0.0473 -0.0032,0.0152 -0.0074,0.0295 -0.0125,0.0428 -0.0052,0.0131 -0.011,0.0249 -0.0176,0.035l-0.0434 -0.026c0.013,-0.0217 0.022,-0.0434 0.0267,-0.0648 0.0047,-0.0215 0.0056,-0.0451 0.0029,-0.0707 -0.0018,-0.0182 -0.0065,-0.0351 -0.0138,-0.0504 -0.0073,-0.0152 -0.0178,-0.0282 -0.0316,-0.0387 -0.0138,-0.0104 -0.0308,-0.0181 -0.0509,-0.0228 -0.0202,-0.0045 -0.0441,-0.0054 -0.0719,-0.0025l-0.2281 0.0242 0.0166 0.1578 -0.05 0.0053 -0.027 -0.255 0.2781 -0.0295c0.0344,-0.0038 0.0648,-0.0017 0.0915,0.0062 0.0266,0.0078 0.0494,0.0203 0.0684,0.0378 0.0191,0.0174 0.0342,0.0393 0.0456,0.0658 0.0114,0.0264 0.019,0.0563 0.0224,0.0898z"/>
   <polygon id="9" class="fil8" points="0.5889,5.782 0.7443,5.7793 0.74,5.533 0.7906,5.5322 0.7949,5.7784 0.9604,5.7754 0.955,5.4618 1.0055,5.4609 1.0128,5.8723 0.5401,5.8807 0.5328,5.4691 0.5835,5.4683 "/>
   <polygon id="10" class="fil8" points="0.5989,4.9747 0.9812,4.9025 0.9818,4.8957 0.5852,4.7467 0.5937,4.6491 1.0529,4.8213 1.0404,4.9659 0.6718,5.0353 0.6713,5.0419 1.0221,5.1742 1.0096,5.3186 0.5273,5.4087 0.536,5.3113 0.9524,5.2331 0.953,5.2263 0.5889,5.0889 "/>
   <path id="11" class="fil8" d="M0.71 4.3234c-0.0049,0.0223 -0.0055,0.0442 -0.0019,0.0656 0.0037,0.0212 0.0119,0.0409 0.0251,0.059 0.0131,0.018 0.0312,0.0341 0.0541,0.0481 0.023,0.0141 0.0514,0.0249 0.0853,0.0323 0.0339,0.0073 0.0642,0.0095 0.091,0.0066 0.0267,-0.0031 0.0499,-0.0102 0.0693,-0.0211 0.0195,-0.011 0.0355,-0.0253 0.0477,-0.0431 0.0121,-0.0179 0.0206,-0.038 0.0257,-0.0603 0.0049,-0.0225 0.0055,-0.0443 0.0019,-0.0657 -0.0036,-0.0212 -0.012,-0.0409 -0.025,-0.059 -0.0132,-0.0181 -0.0313,-0.0341 -0.0543,-0.0481 -0.0229,-0.0141 -0.0514,-0.0248 -0.0853,-0.0323 -0.0338,-0.0075 -0.0642,-0.0096 -0.0909,-0.0065 -0.0269,0.003 -0.0499,0.0101 -0.0694,0.021 -0.0194,0.0109 -0.0353,0.0253 -0.0475,0.0431 -0.0123,0.0178 -0.0208,0.0379 -0.0258,0.0604zm-0.046 -0.0102c0.0087,-0.0396 0.022,-0.0743 0.0396,-0.1042 0.0177,-0.03 0.0393,-0.0543 0.0651,-0.0728 0.0258,-0.0185 0.0552,-0.0308 0.0884,-0.037 0.033,-0.006 0.0694,-0.0048 0.1091,0.004 0.0395,0.0088 0.073,0.0228 0.1005,0.0422 0.0276,0.0194 0.0492,0.043 0.0648,0.0706 0.0156,0.0276 0.0251,0.0587 0.0285,0.0932 0.0035,0.0347 0.0009,0.0718 -0.0078,0.1113 -0.0087,0.0396 -0.0219,0.0745 -0.0395,0.1046 -0.0178,0.0303 -0.0394,0.0546 -0.0653,0.0732 -0.0256,0.0184 -0.0551,0.0307 -0.0882,0.0364 -0.0331,0.006 -0.0694,0.0046 -0.109,-0.0042 -0.0395,-0.0086 -0.0732,-0.0226 -0.1007,-0.0418 -0.0277,-0.0191 -0.0492,-0.0426 -0.0649,-0.0702 -0.0155,-0.0275 -0.0251,-0.0588 -0.0284,-0.0937 -0.0034,-0.0348 -0.0008,-0.072 0.0078,-0.1116zm-0.1039 -0.1265l0.0833 0.0916 -0.0137 0.0626 -0.09 -0.0613 0.0204 -0.0929z"/>
   <path id="12" class="fil8" d="M0.8657 3.725c0.0145,-0.0378 0.0323,-0.0703 0.0536,-0.0976 0.0212,-0.0272 0.0453,-0.0485 0.0722,-0.0635 0.0269,-0.015 0.0565,-0.0233 0.0887,-0.025 0.0322,-0.0016 0.0663,0.0044 0.1024,0.0183 0.0362,0.0138 0.0657,0.032 0.0886,0.0547 0.0228,0.0229 0.0393,0.0486 0.0494,0.0778 0.0099,0.0291 0.0138,0.061 0.0115,0.0954 -0.0023,0.0346 -0.0107,0.0707 -0.0252,0.1086l-0.0795 0.208 -0.4413 -0.1686 0.0796 -0.2081zm0.0027 0.1347l0.3466 0.1325 0.0446 -0.1166c0.0082,-0.0215 0.0126,-0.0428 0.0132,-0.064 0.0006,-0.0213 -0.0035,-0.0413 -0.0123,-0.0606 -0.0086,-0.0193 -0.0224,-0.0372 -0.0411,-0.0538 -0.0187,-0.0165 -0.0435,-0.0306 -0.0741,-0.0423 -0.0307,-0.0117 -0.0586,-0.0177 -0.0835,-0.0178 -0.025,-0.0002 -0.0471,0.0039 -0.0665,0.0125 -0.0194,0.0084 -0.0359,0.0208 -0.0496,0.037 -0.0136,0.0163 -0.0245,0.0351 -0.0327,0.0564l-0.0446 0.1167z"/>
   <polygon id="13" class="fil8" points="1.2343,3.0705 1.4173,3.5152 1.5624,3.2295 1.6075,3.2525 1.4089,3.6433 1.3578,3.6174 1.1748,3.1727 1.0358,3.4462 0.9908,3.4234 1.1832,3.0446 "/>
   <polygon id="14" class="fil8" points="1.5013,2.6309 1.4044,2.7853 1.7623,3.0099 1.7103,3.0929 1.3524,2.8683 1.2554,3.0226 1.2123,2.9955 1.4581,2.6038 "/>
   <polygon id="15" class="fil8" points="1.8111,2.2361 2.1639,2.4028 2.1683,2.3978 1.9339,2.0433 1.9981,1.9694 2.2692,2.3791 2.1741,2.4887 1.8349,2.3281 1.8304,2.3333 2.037,2.6465 1.9418,2.7563 1.4982,2.5453 1.5623,2.4714 1.9462,2.6536 1.9507,2.6485 1.7359,2.3227 "/>
   <path id="16" class="fil8" d="M2.3441 2.0783l0.1582 -0.1366 -0.2396 -0.1224 -0.0051 0.0043 0.0865 0.2547zm-0.0626 -0.3508l0.4541 0.2316 -0.0734 0.0635 -0.1088 -0.0578 -0.194 0.1676 0.0413 0.116 -0.0734 0.0635 -0.1632 -0.4831 0.1174 -0.1013z"/>
   <path id="17" class="fil8" d="M3.1959 1.4992c0.0104,0.0165 0.0166,0.0338 0.0188,0.0525 0.0022,0.0186 -0.0009,0.038 -0.0097,0.0583 -0.0087,0.0201 -0.0234,0.0411 -0.0441,0.0626 -0.0207,0.0218 -0.0488,0.0439 -0.0845,0.0666 -0.0201,0.0128 -0.0408,0.0238 -0.0619,0.033 -0.0211,0.0092 -0.042,0.0164 -0.0629,0.0217 -0.0209,0.0054 -0.0412,0.0086 -0.0611,0.0097 -0.0198,0.0012 -0.0382,0.0003 -0.0549,-0.0029l0.0067 -0.0523c0.0335,0.0049 0.0677,0.003 0.1028,-0.0056 0.0349,-0.0087 0.0698,-0.0241 0.1043,-0.046 0.0384,-0.0244 0.0622,-0.047 0.0714,-0.0678 0.0092,-0.0207 0.0079,-0.0404 -0.0041,-0.059 -0.0091,-0.0145 -0.0231,-0.0227 -0.0419,-0.0245 -0.0188,-0.002 -0.0462,0.0018 -0.0823,0.0113l-0.13 0.0347c-0.0429,0.0112 -0.0792,0.0139 -0.1087,0.0078 -0.0293,-0.0061 -0.0529,-0.0228 -0.0702,-0.0502 -0.009,-0.0141 -0.0143,-0.0299 -0.016,-0.0472 -0.0016,-0.0173 0.0014,-0.0355 0.0089,-0.0545 0.0077,-0.0189 0.0207,-0.0383 0.0388,-0.0581 0.018,-0.0198 0.0425,-0.0395 0.0732,-0.059 0.0187,-0.0119 0.0382,-0.0222 0.0585,-0.0307 0.0203,-0.0087 0.0408,-0.0156 0.0614,-0.0206 0.0205,-0.005 0.0407,-0.008 0.0605,-0.0091 0.0198,-0.0013 0.0382,-0.0002 0.0552,0.003l-0.0068 0.0523c-0.0337,-0.0051 -0.067,-0.0038 -0.1001,0.0035 -0.0332,0.0074 -0.0671,0.022 -0.1017,0.044 -0.0286,0.0181 -0.0467,0.0366 -0.0547,0.0556 -0.0079,0.0189 -0.0073,0.0356 0.0019,0.05 0.005,0.008 0.0107,0.014 0.0171,0.0184 0.0065,0.0042 0.0144,0.0069 0.024,0.008 0.0095,0.0012 0.0207,0.0007 0.0338,-0.0015 0.013,-0.0022 0.0286,-0.0056 0.047,-0.0104l0.1295 -0.0342c0.0415,-0.0109 0.0778,-0.0137 0.109,-0.0084 0.0312,0.0053 0.0554,0.0216 0.0728,0.049zm-0.3946 -0.3378l-0.006 0.124 -0.0541 0.0343 -0.0202 -0.1072 0.0803 -0.0511z"/>
   <polygon id="18" class="fil8" points="3.6245,1.3621 3.6474,1.4071 3.3012,1.5821 3.0881,1.161 3.1755,1.1169 3.3657,1.493 "/>
   <path id="19" class="fil8" d="M3.7415 1.1923l0.1963 -0.0726 -0.1817 -0.1997 -0.0065 0.0024 -0.0081 0.2699zm0.0643 -0.352l0.3445 0.3772 -0.0911 0.0338 -0.0817 -0.0923 -0.2407 0.089 -0.002 0.123 -0.0912 0.0338 0.0164 -0.5108 0.1458 -0.0537zm0.3401 0.5409c-0.0241,0.0091 -0.0449,0.0102 -0.0626,0.0034 -0.0175,-0.0067 -0.0297,-0.0196 -0.0369,-0.0385 -0.0069,-0.0191 -0.0064,-0.037 0.0018,-0.0537 0.0083,-0.0167 0.0201,-0.0334 0.0355,-0.0503l0.0633 -0.0233c-0.0177,0.021 -0.0315,0.0399 -0.0416,0.0568 -0.01,0.0169 -0.0127,0.0318 -0.0081,0.0444 0.0036,0.0097 0.0095,0.0157 0.0175,0.0181 0.0081,0.0023 0.0175,0.0013 0.0285,-0.0026 0.0055,-0.002 0.0107,-0.0047 0.0154,-0.008 0.0049,-0.0031 0.0091,-0.0063 0.0128,-0.0096 0.0039,-0.0033 0.0078,-0.0071 0.0116,-0.0113l0.0255 0.03c-0.0045,0.006 -0.0099,0.0116 -0.0163,0.0168 -0.0049,0.0047 -0.0113,0.0097 -0.0192,0.0147 -0.0081,0.005 -0.0171,0.0095 -0.0272,0.0131z"/>
   <path id="20" class="fil8" d="M4.5714 0.9749c0.0049,0.0188 0.0057,0.0374 0.0022,0.0557 -0.0035,0.0185 -0.0126,0.0359 -0.0269,0.0526 -0.0144,0.0166 -0.0347,0.0321 -0.061,0.0466 -0.0261,0.0145 -0.0597,0.0271 -0.1006,0.0379 -0.023,0.0061 -0.046,0.0104 -0.0688,0.0128 -0.023,0.0024 -0.0452,0.0029 -0.0666,0.0017 -0.0216,-0.0012 -0.042,-0.0043 -0.0612,-0.0092 -0.0192,-0.0049 -0.0365,-0.0113 -0.0515,-0.0193l0.0222 -0.0478c0.0304,0.0147 0.0636,0.0232 0.0996,0.0255 0.036,0.0023 0.0738,-0.0017 0.1134,-0.0123 0.0439,-0.0116 0.0734,-0.026 0.0884,-0.0431 0.0151,-0.0171 0.0197,-0.0363 0.014,-0.0577 -0.0043,-0.0165 -0.0153,-0.0286 -0.0326,-0.036 -0.0174,-0.0075 -0.0446,-0.0122 -0.0819,-0.014l-0.1344 -0.0064c-0.0444,-0.002 -0.0796,-0.0105 -0.106,-0.0253 -0.0262,-0.0147 -0.0435,-0.0379 -0.0518,-0.0693 -0.0043,-0.016 -0.0047,-0.0326 -0.0011,-0.0497 0.0037,-0.0171 0.012,-0.0335 0.025,-0.0494 0.013,-0.0157 0.0311,-0.0304 0.0543,-0.0438 0.0232,-0.0134 0.0525,-0.0248 0.0877,-0.0341 0.0213,-0.0057 0.043,-0.0096 0.065,-0.0117 0.022,-0.002 0.0436,-0.0023 0.0647,-0.0009 0.0211,0.0015 0.0413,0.0046 0.0605,0.0098 0.0192,0.0049 0.0366,0.0115 0.0518,0.0197l-0.0222 0.0479c-0.0305,-0.0149 -0.0627,-0.0239 -0.0965,-0.0269 -0.034,-0.0029 -0.0706,0.0008 -0.1102,0.0114 -0.0326,0.0086 -0.0556,0.0208 -0.0689,0.0364 -0.0133,0.0156 -0.0178,0.0317 -0.0134,0.0482 0.0025,0.0093 0.0061,0.0169 0.011,0.0227 0.0048,0.006 0.0116,0.011 0.0203,0.0148 0.0086,0.0041 0.0196,0.0071 0.0328,0.0089 0.013,0.0019 0.0291,0.0034 0.048,0.0044l0.1337 0.0065c0.0429,0.002 0.0784,0.0103 0.1064,0.0247 0.028,0.0145 0.0462,0.0374 0.0546,0.0687z"/>
   <polygon id="21" class="fil8" points="4.9074,0.806 5.1237,1.0119 5.014,1.0306 4.826,0.8501 4.7095,0.87 4.7447,1.0764 4.6481,1.0927 4.5688,0.6266 4.6654,0.6102 4.701,0.8201 4.8108,0.8013 4.9281,0.5655 5.0345,0.5474 "/>
   <polygon id="22" class="fil8" points="5.2544,1.0207 5.1569,1.0267 5.1282,0.5544 5.2258,0.5486 "/>
   <polygon id="23" class="fil8" points="5.4157,0.5922 5.4184,0.7476 5.6647,0.7433 5.6655,0.7939 5.4193,0.7982 5.4223,0.9637 5.7359,0.9583 5.7368,1.0088 5.3254,1.0161 5.317,0.5434 5.7286,0.5361 5.7294,0.5868 "/>
   <path id="24" class="fil8" d="M6.0661 0.562c0.0404,0.0055 0.078,0.0174 0.1123,0.036 0.0342,0.0186 0.0626,0.0414 0.0849,0.0683l-0.0387 0.0357c-0.0223,-0.027 -0.0468,-0.0476 -0.0733,-0.0618 -0.0264,-0.0142 -0.0549,-0.0232 -0.0852,-0.0273 -0.0227,-0.003 -0.0442,-0.0019 -0.0644,0.0034 -0.0202,0.0053 -0.0384,0.015 -0.0545,0.0292 -0.0163,0.0143 -0.0299,0.0332 -0.0409,0.0569 -0.011,0.0239 -0.0189,0.0529 -0.0235,0.0872 -0.0045,0.0353 -0.0046,0.066 0.0001,0.0923 0.0048,0.0262 0.0131,0.0486 0.0253,0.0667 0.0122,0.0182 0.0278,0.0324 0.047,0.043 0.0194,0.0104 0.041,0.0173 0.065,0.0205 0.0202,0.0027 0.0376,0.0031 0.0526,0.0014 0.0149,-0.0016 0.0277,-0.0042 0.0382,-0.0078 0.0123,-0.0039 0.0226,-0.0089 0.0312,-0.015l0.0168 -0.1272 -0.087 -0.0116 0.0057 -0.0433 0.1839 0.0242 -0.0242 0.184c-0.0182,0.0112 -0.039,0.0205 -0.0622,0.0278 -0.0199,0.0065 -0.044,0.0113 -0.0724,0.0149 -0.0283,0.0034 -0.0602,0.0028 -0.0954,-0.0017 -0.0401,-0.0054 -0.0755,-0.0154 -0.1062,-0.0304 -0.0306,-0.015 -0.056,-0.0343 -0.0759,-0.0584 -0.0201,-0.0239 -0.0341,-0.052 -0.0421,-0.0844 -0.008,-0.0322 -0.0093,-0.0685 -0.004,-0.1086 0.0052,-0.0402 0.016,-0.0748 0.032,-0.1039 0.0161,-0.0292 0.0367,-0.0528 0.0614,-0.0709 0.0249,-0.0181 0.0538,-0.0304 0.0867,-0.0369 0.0328,-0.0065 0.0684,-0.0073 0.1068,-0.0023z"/>
   <path id="25" class="fil8" d="M6.6324 0.7051c-0.0223,-0.0049 -0.0442,-0.0055 -0.0656,-0.0019 -0.0212,0.0037 -0.0409,0.0119 -0.059,0.0251 -0.018,0.0131 -0.0341,0.0312 -0.0481,0.0541 -0.0141,0.023 -0.0249,0.0514 -0.0323,0.0853 -0.0073,0.0339 -0.0095,0.0642 -0.0066,0.091 0.0031,0.0267 0.0102,0.0499 0.0211,0.0693 0.011,0.0195 0.0253,0.0355 0.0431,0.0477 0.0179,0.0121 0.038,0.0206 0.0603,0.0257 0.0225,0.0049 0.0443,0.0055 0.0657,0.0019 0.0212,-0.0036 0.0409,-0.012 0.059,-0.025 0.0181,-0.0132 0.0341,-0.0313 0.0481,-0.0543 0.0141,-0.0229 0.0248,-0.0514 0.0323,-0.0853 0.0075,-0.0339 0.0096,-0.0642 0.0065,-0.0909 -0.003,-0.0269 -0.0101,-0.0499 -0.021,-0.0694 -0.0109,-0.0194 -0.0253,-0.0353 -0.0431,-0.0475 -0.0178,-0.0123 -0.0379,-0.0208 -0.0604,-0.0258zm0.0102 -0.046c0.0396,0.0087 0.0743,0.022 0.1042,0.0396 0.03,0.0177 0.0543,0.0393 0.0728,0.0651 0.0185,0.0258 0.0308,0.0552 0.037,0.0884 0.006,0.033 0.0048,0.0694 -0.004,0.1091 -0.0088,0.0395 -0.0228,0.073 -0.0422,0.1005 -0.0194,0.0276 -0.043,0.0492 -0.0706,0.0648 -0.0276,0.0156 -0.0587,0.0251 -0.0932,0.0285 -0.0347,0.0035 -0.0718,0.0009 -0.1113,-0.0078 -0.0396,-0.0087 -0.0745,-0.0219 -0.1046,-0.0395 -0.0303,-0.0178 -0.0546,-0.0394 -0.0732,-0.0653 -0.0184,-0.0256 -0.0307,-0.0551 -0.0364,-0.0882 -0.006,-0.0331 -0.0046,-0.0694 0.0042,-0.109 0.0086,-0.0395 0.0226,-0.0732 0.0418,-0.1007 0.0191,-0.0277 0.0426,-0.0492 0.0702,-0.0649 0.0275,-0.0155 0.0588,-0.0251 0.0937,-0.0284 0.0348,-0.0034 0.072,-0.0008 0.1116,0.0078z"/>
   <polygon id="26" class="fil8" points="7.5604,1.0223 7.5086,1.408 7.5148,1.4106 7.7813,1.0811 7.8711,1.1199 7.563,1.5013 7.4299,1.4438 7.4802,1.0719 7.474,1.0693 7.2379,1.3609 7.1045,1.3033 7.171,0.8175 7.2609,0.8564 7.2038,1.2764 7.21,1.279 7.4551,0.9768 "/>
   <polygon id="27" class="fil8" points="8.1562,1.7965 8.1617,1.8003 8.5359,1.5669 8.6553,1.6492 8.3874,2.0378 8.3067,1.9824 8.5212,1.6716 8.5155,1.6677 8.1678,1.8865 8.0734,1.8214 8.1542,1.4185 8.1487,1.4147 7.9343,1.7255 7.8538,1.67 8.1217,1.2814 8.2413,1.3638 "/>
   <path id="28" class="fil8" d="M8.6367 2.0636l0.1512 0.1445 0.0996 -0.2506 -0.0047 -0.0047 -0.2461 0.1108zm0.3443 -0.0965l-0.1875 0.4746 -0.0703 -0.0673 0.047 -0.1136 -0.1852 -0.1773 -0.1115 0.0522 -0.0702 -0.0671 0.4655 -0.2087 0.1122 0.1072z"/>
   <path id="29" class="fil8" d="M9.3278 2.342c0.022,0.0254 0.039,0.0508 0.0508,0.0759 0.0119,0.025 0.0185,0.0492 0.0198,0.0724 0.0014,0.0232 -0.0025,0.0452 -0.0114,0.0662 -0.009,0.0208 -0.0235,0.0398 -0.0432,0.0569 -0.0273,0.0235 -0.0561,0.0365 -0.0867,0.039 -0.0303,0.0026 -0.0616,-0.0047 -0.0934,-0.0216l-0.0478 0.1882 -0.0727 -0.0841 0.0423 -0.1677 -0.0079 -0.0091 -0.0948 -0.1098 -0.1072 0.0925 -0.0639 -0.074 0.3573 -0.3086 0.1588 0.1838zm-0.1333 -0.0765l-0.1731 0.1495 0.0947 0.1097c0.0233,0.0269 0.0483,0.0416 0.0751,0.0441 0.0266,0.0024 0.0548,-0.0092 0.0843,-0.0346 0.0295,-0.0256 0.0449,-0.0517 0.0465,-0.0784 0.0013,-0.0268 -0.0095,-0.0537 -0.0328,-0.0805l-0.0947 -0.1098z"/>
   <path id="30" class="fil8" d="M9.4853 3.1663c-0.0165,0.0104 -0.0338,0.0166 -0.0525,0.0188 -0.0186,0.0022 -0.038,-0.0009 -0.0583,-0.0097 -0.0201,-0.0087 -0.0411,-0.0234 -0.0626,-0.0441 -0.0218,-0.0207 -0.0439,-0.0488 -0.0666,-0.0845 -0.0128,-0.0201 -0.0238,-0.0408 -0.033,-0.0619 -0.0092,-0.0211 -0.0164,-0.042 -0.0217,-0.0629 -0.0054,-0.0209 -0.0086,-0.0412 -0.0097,-0.0611 -0.0012,-0.0198 -0.0003,-0.0382 0.0029,-0.0549l0.0523 0.0067c-0.0049,0.0335 -0.003,0.0677 0.0056,0.1028 0.0087,0.0349 0.0241,0.0698 0.046,0.1043 0.0244,0.0384 0.047,0.0622 0.0678,0.0714 0.0207,0.0092 0.0404,0.0079 0.059,-0.0041 0.0145,-0.0091 0.0227,-0.0231 0.0245,-0.0419 0.002,-0.0188 -0.0018,-0.0462 -0.0113,-0.0823l-0.0347 -0.13c-0.0112,-0.0429 -0.0139,-0.0792 -0.0078,-0.1087 0.0061,-0.0293 0.0228,-0.0529 0.0502,-0.0702 0.0141,-0.009 0.0299,-0.0143 0.0472,-0.016 0.0173,-0.0016 0.0355,0.0014 0.0545,0.0089 0.0189,0.0077 0.0383,0.0207 0.0581,0.0388 0.0198,0.018 0.0395,0.0425 0.059,0.0732 0.0119,0.0187 0.0222,0.0382 0.0307,0.0585 0.0087,0.0203 0.0156,0.0408 0.0206,0.0614 0.005,0.0205 0.008,0.0407 0.0091,0.0605 0.0013,0.0198 0.0002,0.0382 -0.003,0.0552l-0.0523 -0.0068c0.005,-0.0337 0.0038,-0.067 -0.0035,-0.1001 -0.0074,-0.0332 -0.022,-0.0671 -0.044,-0.1017 -0.0181,-0.0286 -0.0366,-0.0467 -0.0556,-0.0547 -0.0189,-0.0079 -0.0356,-0.0073 -0.05,0.0019 -0.0081,0.005 -0.014,0.0107 -0.0184,0.0171 -0.0041,0.0065 -0.0069,0.0144 -0.008,0.024 -0.0012,0.0095 -0.0007,0.0207 0.0015,0.0338 0.0022,0.013 0.0057,0.0287 0.0104,0.047l0.0342 0.1295c0.0109,0.0415 0.0137,0.0778 0.0084,0.109 -0.0053,0.0312 -0.0216,0.0554 -0.049,0.0728z"/>
   <polygon id="31" class="fil8" points="9.9603,3.4466 9.4937,3.3309 9.6384,3.617 9.5933,3.6398 9.3953,3.2484 9.4464,3.2225 9.913,3.3381 9.7745,3.0643 9.8196,3.0414 10.0114,3.4207 "/>
   <path id="32" class="fil8" d="M9.8129 3.7429l0.0726 0.1963 0.1997 -0.1817 -0.0024 -0.0065 -0.2699 -0.0081zm0.352 0.0643l-0.3775 0.3446 -0.0337 -0.0912 0.0925 -0.0817 -0.089 -0.2407 -0.1233 -0.0019 -0.0337 -0.0913 0.511 0.0164 0.0537 0.1458z"/>
   <path id="33" class="fil8" d="M9.8938 4.3994c0.0079,0.0295 0.0204,0.0566 0.0379,0.0811 0.0176,0.0244 0.041,0.046 0.0707,0.0647l-0.0305 0.043c-0.0296,-0.0187 -0.0558,-0.0439 -0.0784,-0.0755 -0.0229,-0.0317 -0.0396,-0.0674 -0.0502,-0.1069 -0.0107,-0.0409 -0.0153,-0.0791 -0.0136,-0.1147 0.0018,-0.0356 0.0098,-0.0678 0.0241,-0.0964 0.0142,-0.0288 0.0348,-0.0535 0.0614,-0.0741 0.0267,-0.0206 0.0597,-0.0361 0.0989,-0.0465 0.0392,-0.0105 0.0756,-0.0135 0.1089,-0.009 0.0332,0.0043 0.0633,0.0153 0.0898,0.0328 0.0265,0.0173 0.0494,0.0407 0.0683,0.0701 0.0191,0.0294 0.0336,0.0637 0.0441,0.1029 0.0106,0.0395 0.0137,0.0787 0.0094,0.1175 -0.0043,0.0389 -0.0147,0.0738 -0.0315,0.1049l-0.0478 -0.0223c0.0166,-0.031 0.0264,-0.0614 0.0295,-0.0914 0.0031,-0.0299 0.0007,-0.0596 -0.0071,-0.0892 -0.0062,-0.0236 -0.016,-0.0445 -0.029,-0.0628 -0.0131,-0.0185 -0.0294,-0.0329 -0.0491,-0.0436 -0.0195,-0.0105 -0.0424,-0.017 -0.069,-0.019 -0.0264,-0.0021 -0.0564,0.0013 -0.09,0.0103 -0.0335,0.0089 -0.0612,0.0208 -0.0831,0.0358 -0.022,0.0148 -0.0388,0.032 -0.0504,0.0517 -0.0116,0.0197 -0.0183,0.041 -0.0204,0.064 -0.002,0.0232 0.0003,0.0474 0.0071,0.0726z"/>
   <polygon id="34" class="fil8" points="10.4579,5.0288 9.9917,5.1081 9.9754,5.0117 10.1784,4.9771 10.1319,4.7044 9.9289,4.739 9.9126,4.6424 10.3787,4.5631 10.3951,4.6597 10.1818,4.6959 10.2284,4.9687 10.4415,4.9324 "/>
   <polygon id="35" class="fil8" points="10.4604,5.845 9.9875,5.8323 9.991,5.7041 10.3829,5.4615 10.3831,5.4547 9.9981,5.4443 10.0008,5.3466 10.4735,5.3593 10.47,5.4875 10.0782,5.7301 10.0781,5.7369 10.463,5.7473 "/>
   <path id="36" class="fil8" d="M10.1258 6.0487l-0.0275 0.2074 0.261 -0.0676 0.0009 -0.0067 -0.2344 -0.1331zm0.2804 0.2208l-0.4933 0.1287 0.0128 -0.0962 0.1196 -0.0292 0.0335 -0.2542 -0.1078 -0.0591 0.0128 -0.0964 0.4428 0.2526 -0.0204 0.1538z"/>
   <path id="37" class="fil8" d="M10.2086 6.973c0.0071,-0.0217 0.0101,-0.0434 0.0086,-0.0649 -0.0013,-0.0215 -0.0076,-0.042 -0.0187,-0.0613 -0.011,-0.0193 -0.0274,-0.0372 -0.0487,-0.0535 -0.0213,-0.0163 -0.0484,-0.03 -0.0813,-0.0408 -0.0327,-0.0109 -0.0626,-0.0162 -0.0895,-0.0159 -0.0269,0.0004 -0.0505,0.0049 -0.0709,0.0138 -0.0205,0.0089 -0.0377,0.0215 -0.0516,0.038 -0.0141,0.0164 -0.0247,0.0354 -0.0319,0.0573 -0.0073,0.0218 -0.0102,0.0434 -0.0089,0.0649 0.0015,0.0216 0.0077,0.042 0.0188,0.0614 0.0111,0.0193 0.0274,0.037 0.0488,0.0533 0.0213,0.0165 0.0483,0.03 0.0812,0.0409 0.0328,0.0109 0.0626,0.0163 0.0896,0.0159 0.0268,-0.0004 0.0505,-0.0049 0.0709,-0.0137 0.0204,-0.0089 0.0377,-0.0215 0.0517,-0.038 0.0139,-0.0165 0.0246,-0.0356 0.0319,-0.0574zm0.0451 0.0151c-0.0128,0.0383 -0.0294,0.0716 -0.0501,0.0995 -0.0207,0.0281 -0.0449,0.0498 -0.0723,0.0656 -0.0275,0.0158 -0.058,0.0249 -0.0917,0.0276 -0.0336,0.0025 -0.0696,-0.0026 -0.108,-0.0153 -0.0384,-0.0129 -0.0704,-0.0303 -0.0958,-0.0524 -0.0254,-0.0222 -0.0444,-0.0478 -0.057,-0.0769 -0.0127,-0.0291 -0.0189,-0.0609 -0.0188,-0.0957 0.0002,-0.0348 0.0066,-0.0714 0.0194,-0.1098 0.0128,-0.0385 0.0295,-0.0717 0.0502,-0.0999 0.0208,-0.0282 0.0448,-0.0502 0.0724,-0.0659 0.0275,-0.0158 0.058,-0.0248 0.0915,-0.0272 0.0336,-0.0024 0.0695,0.0028 0.108,0.0156 0.0384,0.0127 0.0705,0.0302 0.0958,0.052 0.0255,0.022 0.0446,0.0474 0.0572,0.0765 0.0127,0.0291 0.0189,0.0612 0.0187,0.0962 -0.0002,0.035 -0.0068,0.0717 -0.0195,0.1101z"/>
   <path id="38" class="fil8" d="M10.0252 7.5561c-0.0134,0.0311 -0.0288,0.0573 -0.0461,0.079 -0.0175,0.0216 -0.0363,0.0381 -0.0566,0.0494 -0.0203,0.0113 -0.042,0.0174 -0.0647,0.0184 -0.0226,0.001 -0.0459,-0.0037 -0.0698,-0.014 -0.0331,-0.0143 -0.0573,-0.0346 -0.073,-0.061 -0.0154,-0.0262 -0.0226,-0.0574 -0.0211,-0.0936l-0.1903 0.039 0.0441 -0.102 0.1693 -0.035 0.0049 -0.0112 0.0576 -0.1332 -0.13 -0.0562 0.0387 -0.0898 0.4333 0.1873 -0.0963 0.2229zm0.0109 -0.1534l-0.2099 -0.0905 -0.0576 0.1331c-0.0141,0.0326 -0.0164,0.0616 -0.007,0.0866 0.0094,0.0251 0.032,0.0455 0.0678,0.061 0.0357,0.0154 0.066,0.018 0.0909,0.0076 0.0247,-0.0104 0.0441,-0.0319 0.0583,-0.0645l0.0575 -0.1333z"/>
   <polygon id="39" class="fil8" points="9.4221,7.6995 9.4702,7.6142 9.882,7.8475 9.8338,7.9326 "/>
   <polygon id="40" class="fil8" points="9.6959,8.0694 9.5641,7.9871 9.4337,8.1962 9.3904,8.1692 9.5209,7.9602 9.3811,7.8728 9.2149,8.1392 9.1716,8.1122 9.3897,7.7628 9.7909,8.0133 9.5728,8.3627 9.5295,8.3357 "/>
   <polygon id="41" class="fil8" points="9.2226,8.8182 8.8466,8.5315 8.9243,8.4295 9.384,8.4615 9.388,8.4563 9.082,8.2227 9.1413,8.145 9.5173,8.4317 9.4395,8.5337 8.98,8.5016 8.9759,8.507 9.282,8.7403 "/>
   <polygon id="42" class="fil8" points="8.775,9.1752 8.9073,9.0497 8.6163,8.7431 8.6874,8.6757 8.9783,8.9824 9.1106,8.8568 9.1452,8.8934 8.8097,9.2118 "/>
   <path id="43" class="fil8" d="M8.5103 9.0666l-0.1649 0.129 0.2339 0.1347 0.0054 -0.0042 -0.0744 -0.2595zm0.0459 0.3546l-0.443 -0.254 0.0767 -0.06 0.1057 0.063 0.2022 -0.1579 -0.0356 -0.118 0.0766 -0.06 0.1398 0.4913 -0.1224 0.0956z"/>
   <path id="44" class="fil8" d="M7.9093 9.3438c-0.0258,0.0164 -0.0478,0.0366 -0.0657,0.0606 -0.0182,0.024 -0.0316,0.053 -0.0405,0.0868l-0.0502 -0.0161c0.009,-0.0337 0.025,-0.0662 0.0483,-0.0975 0.0235,-0.0313 0.0524,-0.058 0.0869,-0.0799 0.0357,-0.0227 0.0707,-0.0386 0.1053,-0.0477 0.0345,-0.009 0.0675,-0.0113 0.0992,-0.0063 0.0317,0.0051 0.0613,0.0171 0.089,0.0363 0.0277,0.0191 0.0524,0.0458 0.0742,0.0801 0.0216,0.0341 0.0354,0.0679 0.0412,0.1009 0.0058,0.033 0.0044,0.0649 -0.0041,0.0955 -0.0086,0.0305 -0.0241,0.0592 -0.0463,0.0862 -0.0225,0.0269 -0.0508,0.0513 -0.0849,0.073 -0.0345,0.022 -0.0709,0.0369 -0.1093,0.0445 -0.0382,0.0078 -0.0746,0.0084 -0.1091,0.0021l0.0068 -0.0524c0.0345,0.0067 0.0666,0.0068 0.096,0.0008 0.0295,-0.0061 0.0572,-0.0174 0.083,-0.0338 0.0205,-0.0131 0.0376,-0.0285 0.0512,-0.0465 0.0135,-0.0181 0.0225,-0.038 0.0268,-0.0599 0.0041,-0.0219 0.0032,-0.0458 -0.0028,-0.0717 -0.0059,-0.0257 -0.0184,-0.0533 -0.0369,-0.0826 -0.0187,-0.0294 -0.0384,-0.0522 -0.0591,-0.0685 -0.0209,-0.0165 -0.0424,-0.0272 -0.0647,-0.0325 -0.0222,-0.005 -0.0446,-0.0051 -0.0672,0 -0.0226,0.0051 -0.045,0.0146 -0.0671,0.0286z"/>
   <path id="45" class="fil8" d="M7.5769 9.4784c0.0145,-0.0073 0.0293,-0.0133 0.0449,-0.018 0.0154,-0.0049 0.0309,-0.0085 0.0464,-0.0107 0.0155,-0.0023 0.0303,-0.0035 0.0446,-0.0033 0.0141,0.0001 0.0271,0.0015 0.039,0.0039l-0.0088 0.0499c-0.025,-0.0045 -0.0483,-0.0051 -0.0702,-0.0019 -0.0217,0.0032 -0.0441,0.0106 -0.0671,0.0222 -0.0164,0.0083 -0.0305,0.0186 -0.0422,0.0308 -0.0117,0.0122 -0.02,0.0267 -0.025,0.0433 -0.0049,0.0166 -0.0061,0.0351 -0.0032,0.0557 0.0028,0.0205 0.0105,0.0431 0.0231,0.068l0.1035 0.2047 0.1414 -0.0716 0.0229 0.0452 -0.2289 0.1156 -0.1262 -0.2497c-0.0157,-0.0309 -0.0245,-0.0601 -0.0267,-0.0878 -0.0021,-0.0277 0.0015,-0.0534 0.0112,-0.0773 0.0095,-0.0241 0.0246,-0.046 0.0451,-0.066 0.0207,-0.0202 0.0462,-0.0377 0.0762,-0.053z"/>
   <path id="46" class="fil8" d="M7.3748 10.0533l-0.0539 -0.1461 -0.2313 0.0853 -0.0176 -0.0473 0.2313 -0.0854 -0.0575 -0.1556 -0.2945 0.1087 -0.0176 -0.0473 0.3864 -0.1427 0.164 0.4439 -0.3863 0.1427 -0.0175 -0.0474 0.2945 -0.1088zm-0.3099 -0.4983c0.0241,-0.009 0.0449,-0.01 0.0625,-0.0034 0.0175,0.0067 0.03,0.0196 0.037,0.0387 0.007,0.0191 0.0063,0.0369 -0.0018,0.0537 -0.0082,0.0167 -0.02,0.0334 -0.0354,0.0502l-0.0633 0.0234c0.0176,-0.021 0.0314,-0.0399 0.0416,-0.0568 0.01,-0.017 0.0128,-0.0318 0.008,-0.0445 -0.0036,-0.0098 -0.0094,-0.0157 -0.0175,-0.018 -0.0081,-0.0025 -0.0176,-0.0015 -0.0284,0.0025 -0.0057,0.0021 -0.0108,0.0047 -0.0156,0.0079 -0.0048,0.0032 -0.0089,0.0065 -0.0127,0.0097 -0.0039,0.0034 -0.0077,0.0072 -0.0115,0.0114l-0.0256 -0.0302c0.0045,-0.0059 0.0099,-0.0116 0.0162,-0.0166 0.005,-0.0049 0.0114,-0.0097 0.0193,-0.0148 0.008,-0.0051 0.0171,-0.0096 0.0272,-0.0132z"/>
  </g>
 </g>
</svg>
