<svg xmlns="http://www.w3.org/2000/svg" width="40" height="40" shape-rendering="geometricPrecision" text-rendering="geometricPrecision" image-rendering="optimizeQuality" viewBox="0 0 70 70"><style>.a{fill:none;stroke-width:3;stroke:white;}.b{fill:none;stroke-width:4;stroke:white;}.c{fill:white;}</style><line x1="18.8" y1="42.5" x2="50.6" y2="42.5" class="a"/><line x1="18.8" y1="58.4" x2="41.9" y2="58.4" class="a"/><line x1="18.8" y1="50.4" x2="50.6" y2="50.4" class="a"/><polygon points="10.9 67.8 10.9 2.7 48.7 2.7 59.1 12.6 59.1 67.8 " class="b"/><polyline points="48.7 2.7 48.7 12.6 59.1 12.6 " class="b"/><polygon points="22.1 21.5 23.3 25.3 21.5 25.3 19.5 21.5 " class="c"/><path d="M31.2 28.4c0.5-0.3 0.9-0.7 1.3-1.2 0.4-0.5 0.5-1 0.5-1.6 0-0.8-0.3-1.4-0.8-1.9-0.5-0.5-1.3-0.7-2.3-0.7-0.9 0-1.8 0.1-2.6 0.4-0.8 0.3-1.5 0.7-2.2 1.3l-0.8-1.1c0.7-0.6 1.6-1.1 2.5-1.4 1-0.3 2.1-0.5 3.3-0.5 1 0 1.9 0.1 2.6 0.3 0.7 0.2 1.3 0.5 1.8 0.8 0.5 0.3 0.8 0.8 1.1 1.2 0.2 0.5 0.4 1 0.4 1.6 0 0.6-0.1 1.1-0.2 1.5-0.2 0.4-0.4 0.9-0.6 1.2-0.3 0.4-0.6 0.7-0.9 1-0.4 0.3-0.7 0.6-1.1 0.9l-4.8 3.7 7.9 0 0 1.4-11.6 0 0-1.5 6.8-5.2z" class="c"/><path d="M44.4 22.8c-0.5 0-1 0.1-1.4 0.3-0.5 0.2-0.9 0.5-1.2 1-0.3 0.5-0.6 1-0.9 1.8-0.2 0.7-0.3 1.6-0.3 2.6 0 1 0.1 1.9 0.3 2.6 0.2 0.7 0.5 1.3 0.9 1.8 0.4 0.5 0.8 0.8 1.2 1 0.5 0.2 0.9 0.3 1.4 0.3 0.5 0 1-0.1 1.4-0.3 0.5-0.2 0.9-0.5 1.2-1 0.4-0.4 0.6-1 0.9-1.7 0.2-0.7 0.3-1.6 0.3-2.6 0-1-0.1-1.9-0.3-2.6-0.2-0.7-0.5-1.3-0.9-1.7-0.4-0.4-0.8-0.8-1.2-1-0.5-0.2-0.9-0.3-1.4-0.3zm0-1.3c1 0 1.9 0.1 2.7 0.4 0.8 0.3 1.6 0.7 2.2 1.3 0.6 0.6 1.1 1.3 1.4 2.2 0.3 0.9 0.5 1.9 0.5 3.1 0 1.2-0.2 2.2-0.5 3.1-0.3 0.9-0.8 1.6-1.4 2.2-0.6 0.6-1.3 1-2.1 1.3-0.8 0.3-1.7 0.4-2.7 0.4-1 0-1.9-0.1-2.7-0.4-0.8-0.3-1.5-0.7-2.1-1.3-0.6-0.6-1.1-1.3-1.4-2.2-0.3-0.9-0.5-1.9-0.5-3.1 0-1.2 0.2-2.2 0.5-3.1 0.3-0.9 0.8-1.6 1.4-2.2 0.6-0.6 1.3-1 2.1-1.3 0.8-0.3 1.7-0.4 2.7-0.4z" class="c"/></svg>